<svg width="1440" height="324" viewBox="0 0 1440 324" fill="none" xmlns="http://www.w3.org/2000/svg">
<g clip-path="url(#clip0_180_1530)">
<circle cx="26.5" cy="162" r="298" fill="#0430CA"/>
<circle cx="26.5004" cy="162" r="293.794" fill="white"/>
<circle cx="26.4997" cy="162" r="267.96" fill="#0430CA"/>
<circle cx="26.4997" cy="162" r="262.552" fill="white"/>
<circle cx="26.5003" cy="162" r="240.323" fill="#0430CA"/>
<circle cx="26.4996" cy="162" r="233.113" fill="white"/>
<circle cx="26.4996" cy="162" r="214.488" fill="#0430CA"/>
<circle cx="26.5004" cy="162" r="200.669" fill="white"/>
<circle cx="26.4998" cy="162" r="185.649" fill="#0430CA"/>
<circle cx="26.4997" cy="162" r="169.427" fill="white"/>
<circle cx="26.4996" cy="162" r="158.613" fill="#0430CA"/>
<circle cx="26.4997" cy="162" r="137.585" fill="white"/>
<circle cx="26.5" cy="162" r="130.375" fill="#0430CA"/>
<circle cx="26.5002" cy="162" r="106.944" fill="white"/>
<circle cx="26.4998" cy="162" r="103.339" fill="#0430CA"/>
<circle cx="26.5003" cy="162" r="78.1048" fill="white"/>
<circle cx="26.5004" cy="162" r="75.7016" fill="#0430CA"/>
<circle cx="720" cy="162" r="387.5" fill="#0430CA"/>
<circle cx="720" cy="162" r="382.031" fill="white"/>
<circle cx="720" cy="162" r="348.438" fill="#0430CA"/>
<circle cx="720" cy="162" r="341.406" fill="white"/>
<circle cx="720" cy="162" r="312.5" fill="#0430CA"/>
<circle cx="720" cy="162" r="303.125" fill="white"/>
<circle cx="720" cy="162" r="278.906" fill="#0430CA"/>
<circle cx="720" cy="162" r="260.938" fill="white"/>
<circle cx="720" cy="162" r="241.406" fill="#0430CA"/>
<circle cx="720" cy="162" r="220.312" fill="white"/>
<circle cx="720" cy="162" r="206.25" fill="#0430CA"/>
<circle cx="720" cy="162" r="178.906" fill="white"/>
<circle cx="720" cy="162" r="169.531" fill="#0430CA"/>
<circle cx="720" cy="162" r="139.062" fill="white"/>
<circle cx="720" cy="162" r="134.375" fill="#0430CA"/>
<circle cx="720" cy="162" r="101.562" fill="white"/>
<circle cx="720" cy="162" r="98.4375" fill="#0430CA"/>
<circle cx="1413.5" cy="162" r="298" fill="#0430CA"/>
<circle cx="1413.5" cy="162" r="293.794" fill="white"/>
<circle cx="1413.5" cy="162" r="267.96" fill="#0430CA"/>
<circle cx="1413.5" cy="162" r="262.552" fill="white"/>
<circle cx="1413.5" cy="162" r="240.323" fill="#0430CA"/>
<circle cx="1413.5" cy="162" r="233.113" fill="white"/>
<circle cx="1413.5" cy="162" r="214.488" fill="#0430CA"/>
<circle cx="1413.5" cy="162" r="200.669" fill="white"/>
<circle cx="1413.5" cy="162" r="185.649" fill="#0430CA"/>
<circle cx="1413.5" cy="162" r="169.427" fill="white"/>
<circle cx="1413.5" cy="162" r="158.613" fill="#0430CA"/>
<circle cx="1413.5" cy="162" r="137.585" fill="white"/>
<circle cx="1413.5" cy="162" r="130.375" fill="#0430CA"/>
<circle cx="1413.5" cy="162" r="106.944" fill="white"/>
<circle cx="1413.5" cy="162" r="103.339" fill="#0430CA"/>
<circle cx="1413.5" cy="162" r="78.1048" fill="white"/>
<circle cx="1413.5" cy="162" r="75.7016" fill="#0430CA"/>
</g>
<defs>
<clipPath id="clip0_180_1530">
<rect width="1440" height="324" fill="white"/>
</clipPath>
</defs>
</svg>
