<svg width="209" height="56" viewBox="0 0 209 56" fill="none" xmlns="http://www.w3.org/2000/svg">
<path d="M29.8136 1.44382C29.2311 1.32897 28.985 0.607059 29.3952 0.205087C29.5264 0.065628 29.6823 0 29.8874 0C30.5601 0 30.8472 0.828554 30.3222 1.27154C30.1171 1.44382 30.0104 1.47663 29.8136 1.44382Z" fill="#0430CA"/>
<path d="M31.8972 1.73095C32.1433 1.68173 32.5125 1.52587 32.7176 1.39461C33.1524 1.10749 33.2098 1.16491 33.1524 1.76377L33.1113 2.18215L33.4477 2.28059C33.6282 2.33801 33.784 2.42005 33.784 2.46927C33.784 2.51849 33.7184 2.5349 33.6446 2.51029C33.1031 2.35442 33.0621 2.35442 33.0129 2.60052C32.7914 3.69979 32.4304 7.11245 32.5043 7.40777C32.5699 7.6949 32.8734 7.88358 33.3985 7.96561C34.0711 8.07226 34.145 8.02304 34.0794 7.49801C34.0137 6.90736 34.1614 5.30768 34.3665 4.52835C34.6618 3.35525 35.1212 2.98609 36.0072 3.19938C36.7291 3.37165 37.3608 4.00332 37.0818 4.28224C36.9424 4.4217 36.5322 4.24122 36.5486 4.05254C36.606 3.57674 36.1056 3.16657 35.8677 3.4865C35.4739 4.01973 35.195 7.44879 35.4575 8.44142C35.6134 8.99925 35.7611 9.15512 36.3927 9.44224C36.6799 9.5735 36.8932 9.71296 36.8603 9.76218C36.6553 10.0985 35.2114 9.3438 34.5387 8.53986L34.2024 8.14609L33.4395 8.09687C32.4304 8.03944 31.5035 7.7031 31.3312 7.34215C31.1917 7.05502 31.2655 6.13623 31.6019 3.77362C31.807 2.34622 31.7906 2.10831 31.487 2.00987C31.2409 1.92784 31.364 1.8458 31.8972 1.73095Z" fill="#0430CA"/>
<path d="M26.606 1.6325C26.4747 1.66531 26.0891 1.81298 25.7528 1.96064L25.7469 1.96327C25.162 2.2232 25.1447 2.23089 24.8504 2.0919C24.4813 1.92783 23.9644 2.01806 23.3492 2.35441C22.8816 2.60872 22.8898 2.69895 23.3656 2.51027C23.8086 2.3298 23.9234 2.3462 24.0301 2.5759C24.1285 2.78099 24.0301 3.80643 23.6855 6.15263C23.4804 7.54722 23.4066 7.80974 23.1933 8.00662C23.0292 8.15428 23.021 8.15428 22.898 7.99842C22.8159 7.88357 22.7913 7.7195 22.8241 7.44058C22.857 7.10423 22.8488 7.05501 22.7093 7.05501C22.5206 7.05501 22.2171 7.42417 22.2171 7.67028C22.2171 8.02303 22.3894 8.36757 22.5944 8.41679C23.0703 8.53985 24.1941 7.51441 24.5059 6.68586C24.8668 5.72605 25.277 3.40446 25.2278 2.63333C25.2114 2.37902 25.2442 2.338 25.5805 2.15752C25.7856 2.05088 26.0891 1.94423 26.2614 1.91142C26.7864 1.82938 26.8028 1.97705 26.4911 4.33145C26.0985 7.29269 26.0973 7.29294 25.8371 7.34985L25.8348 7.35034C25.4165 7.44058 25.3344 7.47339 25.3344 7.55543C25.3344 7.60465 25.4083 7.62106 25.4985 7.59644C25.5436 7.58414 25.6051 7.56568 25.6667 7.54722C25.7282 7.52877 25.7897 7.51031 25.8348 7.498C26.0071 7.44878 26.0153 7.46519 25.9579 7.86716C25.8923 8.37578 25.9989 8.41679 26.3681 8.03123C26.606 7.77692 27.4755 7.30112 27.7134 7.30112C27.7791 7.29291 27.7134 7.24369 27.574 7.17807C27.4263 7.11244 27.3033 7.014 27.3033 6.95657C27.3033 6.89915 27.4099 6.11161 27.5412 5.20923C27.6724 4.30684 27.8119 3.21578 27.8365 2.78919C27.8939 2.1001 27.8775 1.98525 27.7462 1.82118C27.574 1.61609 27.0161 1.52585 26.606 1.6325Z" fill="#0430CA"/>
<path d="M28.9932 2.09188C28.7307 1.88679 28.7635 1.84577 29.305 1.6735C30.0023 1.452 30.3386 1.57506 30.355 2.05086C30.3632 2.20672 30.2484 3.3142 30.1007 4.50371L29.83 6.66123L30.0597 6.84991L30.0774 6.8642C30.1735 6.94149 30.2295 6.98663 30.2238 7.02155C30.2156 7.07059 30.0856 7.09947 29.7728 7.1689L29.7316 7.17805L29.4855 7.22727L29.6905 7.32571C29.8136 7.39134 29.9284 7.55541 29.9941 7.7687C30.0925 8.08043 30.0925 8.13786 29.9531 8.31833C29.5019 8.9418 28.6159 8.69569 28.6159 7.94097C28.6159 7.62924 28.8374 7.3011 29.0507 7.3011C29.0999 7.3011 29.0261 7.22727 28.8866 7.13703C28.7389 7.04679 28.6159 6.90733 28.6159 6.8335C28.6159 6.75146 28.7471 5.69321 28.9194 4.47909L29.2229 2.27235L28.9932 2.09188Z" fill="#0430CA"/>
<path d="M16.5239 4.71702C16.0973 4.86468 15.8266 5.07797 15.5887 5.42252C15.359 5.75066 15.3754 6.11161 15.6543 6.68586C16.0153 7.44058 17.3442 8.99925 17.9349 9.3602C18.0743 9.45864 18.1974 9.55708 18.1974 9.5981C18.1974 9.68834 17.5903 10.2626 17.3524 10.3938C17.0735 10.5497 16.7864 10.5169 16.5485 10.3118C16.327 10.1231 14.6453 8.12147 13.8495 7.10424C13.4394 6.56281 13.4229 6.52999 13.5706 6.43155C13.948 6.17724 14.0546 6.0788 13.9972 6.02958C13.9726 5.99676 13.8003 6.0706 13.628 6.17724L13.3163 6.37413L13.0046 6.02138C12.8323 5.82449 12.66 5.66042 12.6354 5.66042C12.6026 5.66042 12.5124 5.91473 12.4303 6.21826C12.3483 6.52999 12.1924 6.91556 12.0858 7.07963C11.9709 7.2437 11.8807 7.39136 11.8807 7.41597C11.8807 7.44058 12.0037 7.43238 12.1596 7.40777L12.1742 7.40533C12.2339 7.3953 12.2826 7.38712 12.3305 7.39068C12.5433 7.40651 12.7389 7.65447 13.804 9.00497L13.8577 9.07308C15.0308 10.5497 15.7117 11.2388 15.9988 11.2388C16.3516 11.2388 17.1719 10.7794 17.7954 10.2216L18.4189 9.68014H19.108C19.8791 9.68014 20.478 9.54068 20.9784 9.26996C21.2737 9.09769 21.4542 8.8926 21.3639 8.80236C21.3475 8.78595 21.1096 8.85979 20.8307 8.97464C20.2072 9.24535 20.0186 9.23715 19.4853 8.97464C18.8783 8.6629 17.1309 6.85813 16.45 5.82449C16.0891 5.28306 16.0563 5.02875 16.3516 4.95492C16.6305 4.88929 16.9669 4.97953 16.9669 5.12719C16.9669 5.30767 17.2376 5.27486 17.4591 5.06977L17.6477 4.8975L17.4591 4.74163C17.2458 4.56936 16.9669 4.56115 16.5239 4.71702Z" fill="#0430CA"/>
<path d="M20.5026 5.99677C20.1663 5.81629 20.1745 5.18462 20.5108 5.02055C20.7815 4.8975 20.8554 4.9057 21.1015 5.09438C21.6101 5.49636 21.0769 6.3003 20.5026 5.99677Z" fill="#0430CA"/>
<path d="M42.0696 6.66124C42.7669 6.94836 42.8079 6.97298 42.8079 7.14525C42.8079 7.43237 39.6249 10.5497 38.985 10.8942C38.7717 11.0091 38.46 10.9599 38.46 10.8204C38.46 10.6645 38.6405 10.3774 38.8456 10.2052C39.0999 9.99186 39.0343 9.8442 38.6897 9.8442C38.5256 9.8442 38.3698 9.91803 38.2139 10.0903C37.894 10.4349 37.8366 10.7302 38.0498 10.9435C38.1975 11.0993 38.3124 11.1157 39.0589 11.1075C39.8382 11.1075 39.9284 11.0911 40.3878 10.845C40.6586 10.6974 41.118 10.402 41.4133 10.1723C42.0285 9.70474 43.4477 8.35937 43.6856 8.00662L43.8497 7.76051L44.3993 7.90817C45.0064 8.08045 45.2689 8.31835 45.1213 8.58906C45.031 8.73673 43.538 10.2216 42.168 11.5013L41.4133 12.2232L41.1426 12.0591C40.8554 11.8787 40.675 11.8459 40.675 11.9771C40.675 12.0181 40.7242 12.0591 40.7816 12.0591C40.8308 12.0591 40.9621 12.1248 41.0687 12.2068L41.2574 12.3545L41.0031 12.5924C40.8718 12.7236 40.757 12.8549 40.757 12.8959C40.757 12.9287 41.0277 12.9615 41.3559 12.9615C41.6922 12.9615 42.1434 13.019 42.3567 13.0846C42.7997 13.2158 42.8817 13.2076 42.6848 13.0436C42.6192 12.9861 42.5618 12.8959 42.5618 12.8467C42.5618 12.7893 43.2673 12.0673 44.1368 11.2388C45.7201 9.70474 46.1713 9.20433 46.1713 8.93361C46.1713 8.72852 45.7857 8.30194 45.4412 8.12967C45.2771 8.04763 44.8587 7.90817 44.506 7.82614C43.9235 7.69488 43.8497 7.65387 43.7513 7.42417C43.62 7.08782 43.218 6.84172 42.5536 6.68585C41.9547 6.54639 41.7742 6.53819 42.0696 6.66124Z" fill="#0430CA"/>
<path d="M9.54273 8.16248C9.14896 7.77691 9.34585 7.06321 9.87087 6.95656C10.3549 6.86632 10.7322 7.19446 10.7322 7.71949C10.7322 8.31014 9.96932 8.59726 9.54273 8.16248Z" fill="#0430CA"/>
<path d="M38.4683 7.10422C38.3698 7.22728 38.296 7.39135 38.296 7.47338C38.296 7.91637 39.0589 8.13786 39.3132 7.77691C39.4855 7.53081 39.4773 7.36674 39.2722 7.10422C39.1656 6.96476 39.0261 6.89093 38.8703 6.89093C38.7144 6.89093 38.5749 6.96476 38.4683 7.10422Z" fill="#0430CA"/>
<path d="M10.1581 9.20432C10.1663 8.95822 10.5272 8.36756 10.7733 8.20349C10.9948 8.05583 11.0194 8.05583 11.2491 8.18709C11.3804 8.26092 11.5199 8.39217 11.5609 8.47421C11.6101 8.55624 11.8562 8.86798 12.1105 9.17151C12.373 9.47504 12.9719 10.1969 13.4395 10.7712C14.268 11.7966 14.3008 11.8294 14.5634 11.7884C14.8751 11.731 14.8915 11.7638 14.67 12.1166L14.5141 12.3791L14.7766 12.3709C15.1786 12.3545 15.5724 12.5924 15.5806 12.8631C15.597 13.2897 15.5642 13.4127 15.3591 13.5932C14.8997 14.0116 14.1778 13.6998 14.1778 13.0928C14.1778 12.8139 14.1696 12.8057 13.9317 12.8467C13.62 12.9123 13.5051 12.7975 12.0285 10.9024C10.6749 9.17151 10.6585 9.1551 10.3714 9.26175C10.1909 9.33558 10.1581 9.32737 10.1581 9.20432Z" fill="#0430CA"/>
<path d="M48.05 8.93362C47.5906 9.39301 47.886 10.1723 48.5176 10.1723C49.0262 10.1723 49.4036 9.56529 49.1657 9.11409C48.9196 8.63009 48.4356 8.55626 48.05 8.93362Z" fill="#0430CA"/>
<path d="M44.3913 12.74C46.9426 10.3036 47.0082 10.238 46.9508 9.93444C46.9016 9.68013 46.9098 9.66372 47.0903 9.70474C47.5168 9.81138 47.886 10.0165 48.0501 10.2216C48.2059 10.4266 48.2141 10.4513 48.0829 10.6974C48.009 10.8368 47.927 10.9681 47.886 10.9927C47.8532 11.0173 47.1313 11.7146 46.2945 12.5431C44.8015 14.0116 44.7687 14.0608 44.8179 14.3315C44.8431 14.4704 44.8554 14.5382 44.8303 14.5577C44.8065 14.5763 44.7491 14.5517 44.6374 14.5038C44.5144 14.4464 44.3667 14.3725 44.3093 14.3397C44.2436 14.2823 44.2272 14.3479 44.2518 14.5776C44.2847 14.7991 44.2436 14.9632 44.1288 15.1519C43.9811 15.3898 43.9155 15.4226 43.5956 15.4226C43.1444 15.4226 42.8983 15.2339 42.8326 14.8319C42.7916 14.5694 42.8244 14.4956 43.0377 14.2741C43.21 14.11 43.3659 14.028 43.5381 14.028C43.8007 14.028 43.8581 13.9624 43.7022 13.8065C43.5463 13.6506 43.7022 13.3963 44.3913 12.74Z" fill="#0430CA"/>
<path d="M8.9357 10.1231C8.55834 10.402 8.43529 10.5989 8.13996 11.4029C7.91026 12.0181 7.84464 12.1166 7.58213 12.2478C7.23758 12.4119 6.90944 12.8713 6.74537 13.4209C6.56489 14.0198 6.60591 14.1018 6.86022 13.6178C6.98327 13.3717 7.13093 13.1584 7.18836 13.142C7.38524 13.0846 8.49271 14.3397 9.92833 16.2265C10.6913 17.2274 10.8143 17.5063 10.6174 17.7032C10.5108 17.8098 10.4698 17.8098 10.2893 17.6868C10.1744 17.6129 10.0186 17.4571 9.94473 17.3504C9.83809 17.1863 9.78066 17.1617 9.69863 17.2356C9.28025 17.5801 10.0842 18.5563 10.5682 18.2938C10.9866 18.0723 11.044 16.6039 10.6748 15.7589C10.2893 14.8812 8.89468 12.9615 8.25481 12.4283C8.04152 12.2478 8.01691 12.1822 8.05793 11.9525C8.13996 11.5505 8.42708 11.0091 8.59116 10.9517C8.67319 10.9271 8.80445 10.9271 8.87828 10.9599C9.03414 11.0173 11.7823 14.4136 12.0776 14.914C12.1105 14.9714 12.0612 15.1437 11.9628 15.3159C11.8726 15.4718 11.8151 15.6277 11.8397 15.6605C11.889 15.7097 11.9874 15.6031 12.1761 15.2913C12.2581 15.1519 12.2909 15.1683 12.537 15.4472C12.6847 15.6195 12.8242 15.7425 12.8406 15.7179C12.857 15.7015 12.8898 15.4554 12.898 15.1683C12.9144 14.8812 13.0046 14.4382 13.1031 14.1921C13.1311 14.1155 13.1584 14.0422 13.1827 13.9769C13.2364 13.8324 13.2754 13.7276 13.2754 13.7163C13.2754 13.7081 13.1933 13.7491 13.0949 13.8147C12.857 13.9706 12.7831 13.9131 12.2499 13.2076C10.8389 11.3454 9.57557 9.92624 9.31306 9.92624C9.25564 9.92624 9.08337 10.0165 8.9357 10.1231Z" fill="#0430CA"/>
<path d="M49.0426 11.6818C49.0426 11.6162 49.0016 11.4849 48.9606 11.3947C48.8458 11.1896 48.8868 11.1978 49.3872 11.4521C49.6169 11.5669 50.0025 11.6818 50.2486 11.7064C50.4865 11.731 50.708 11.7884 50.7326 11.8213C50.7572 11.8623 50.6259 12.051 50.4454 12.2478L50.1091 12.6088L50.3142 12.8795C50.6177 13.2897 50.5603 13.3799 50.2404 13.0108L49.9614 12.6826L49.0673 13.5112C48.5833 13.9706 47.7629 14.7663 47.2625 15.2831C46.4339 16.1199 46.3355 16.2511 46.3355 16.5055C46.3355 16.7023 46.4175 16.891 46.5898 17.1125C46.8277 17.4078 47.2051 17.7196 47.3363 17.7196C47.3691 17.7196 47.4758 17.5637 47.5742 17.3668C47.7793 16.9648 49.0426 15.6441 49.7071 15.1437C49.9614 14.9468 50.3388 14.7499 50.5439 14.6925C50.8884 14.594 50.9459 14.6022 51.274 14.7827C51.7334 15.037 52.16 15.7179 52.16 16.2101C52.16 16.7762 51.84 16.8746 51.5775 16.3824C51.5037 16.2593 51.5201 16.2019 51.6596 16.1035C51.9303 15.923 51.84 15.2585 51.5447 15.2585C51.356 15.2585 50.265 16.1855 49.6169 16.9074C47.8449 18.8763 47.6152 19.4177 48.1813 20.3775C48.4192 20.7877 48.4274 20.8369 48.2633 20.8369C47.8942 20.8369 47.3527 19.549 47.2871 18.5317L47.2543 17.9575L46.598 17.3258C45.9007 16.6531 45.5151 16.0214 45.5151 15.5703C45.5151 15.3324 45.6956 15.1191 47.2789 13.5604C48.2469 12.6006 49.0426 11.7556 49.0426 11.6818Z" fill="#0430CA"/>
<path d="M27.1228 11.4603C26.9916 11.4767 26.8931 11.5177 26.8849 11.5505C26.8849 11.5833 26.8193 12.2642 26.7373 13.06L26.5978 14.5202H27.0162C27.5412 14.5202 27.7955 14.4464 27.7955 14.3069C27.7955 14.2249 27.6807 14.192 27.3853 14.192C27.152 14.192 27.0514 14.192 27.008 14.1422C26.9752 14.1045 26.9752 14.0381 26.9752 13.9213C26.9752 13.7819 26.9998 13.5194 27.0244 13.3553C27.0736 13.0682 27.0982 13.0518 27.4182 13.0272C27.6643 13.0107 27.7627 12.9615 27.7791 12.8549C27.8037 12.7236 27.7627 12.7072 27.451 12.7318L27.0982 12.7564L27.131 12.3052C27.1638 11.7474 27.172 11.731 27.4674 11.731C27.7791 11.731 27.9596 11.6572 27.9596 11.5177C27.9596 11.4029 27.6479 11.3782 27.1228 11.4603Z" fill="#0430CA"/>
<path fill-rule="evenodd" clip-rule="evenodd" d="M23.7594 13.0764C23.5543 12.5924 23.6609 12.1822 24.0465 12.0181C24.186 11.9607 24.3582 11.9361 24.4239 11.9607C24.8094 12.1002 24.8751 12.6908 24.5469 13.1666L24.3418 13.4784L24.6454 13.7901C24.8176 13.9624 24.9735 14.0936 24.9899 14.069C25.0063 14.0526 25.0473 13.8393 25.0802 13.6014C25.113 13.2897 25.1704 13.1584 25.2688 13.142C25.3837 13.1174 25.3919 13.1748 25.3591 13.4702C25.3345 13.667 25.2934 13.9378 25.2524 14.0772C25.2032 14.2987 25.2196 14.3725 25.3919 14.5448L25.597 14.7499L25.4247 14.8073C25.3263 14.8401 25.195 14.8237 25.1376 14.7745C25.0555 14.7089 24.9981 14.7171 24.9161 14.8155C24.711 15.0616 24.2762 15.2011 24.0301 15.0944C23.5707 14.9058 23.4395 14.3889 23.7266 13.8311L23.9235 13.4373L23.7594 13.0764ZM24.4075 12.9205C24.5141 12.6908 24.5223 12.6006 24.4485 12.4283C24.2762 12.0592 23.9399 12.1986 23.9399 12.6334C23.9399 12.8385 24.1121 13.2076 24.2024 13.2076C24.2352 13.2076 24.3336 13.0764 24.4075 12.9205ZM24.8505 14.512L24.5141 14.1018C24.3254 13.8803 24.1368 13.6999 24.1039 13.6999C23.9973 13.6999 23.8414 14.2577 23.8988 14.4382C24.0301 14.8483 24.3993 14.9632 24.6864 14.6761L24.8505 14.512Z" fill="#0430CA"/>
<path d="M32.7177 12.215C32.7177 12.4365 32.8736 12.5103 33.0213 12.3627C33.1689 12.215 33.0951 12.0591 32.8736 12.0591C32.7752 12.0591 32.7177 12.1166 32.7177 12.215Z" fill="#0430CA"/>
<path d="M28.3206 13.3563C28.3917 13.0165 28.4641 12.671 28.4847 12.5268C28.5421 12.2068 28.78 12.092 28.78 12.3873C28.78 12.4561 28.78 12.4961 28.7976 12.5066C28.8219 12.521 28.8798 12.4791 29.0179 12.3791C29.2968 12.174 29.6414 12.215 29.7234 12.4693C29.748 12.5596 29.6906 13.0354 29.5921 13.5358C29.4445 14.2987 29.3871 14.4382 29.264 14.4382C29.0671 14.4382 29.0671 14.3972 29.2722 13.462C29.3625 13.0436 29.4199 12.6744 29.3953 12.6252C29.2886 12.4693 29.0179 12.5596 28.8702 12.8057C28.7882 12.9451 28.6487 13.3717 28.5749 13.7491C28.4519 14.3151 28.3944 14.4382 28.2714 14.4382C28.223 14.4382 28.1875 14.4382 28.1652 14.4211C28.1045 14.3744 28.1415 14.2004 28.2796 13.5522L28.3206 13.3563Z" fill="#0430CA"/>
<path fill-rule="evenodd" clip-rule="evenodd" d="M30.5518 12.8221C30.035 13.3553 29.8463 14.1838 30.1745 14.4792C30.3139 14.6022 30.3714 14.6104 30.5518 14.5284C30.8308 14.4053 30.8718 14.4546 30.7159 14.7417C30.519 15.1355 30.3714 15.2175 30.0514 15.119C29.8299 15.0452 29.7643 15.0534 29.7315 15.1437C29.6741 15.2913 29.9284 15.4226 30.2729 15.4226C30.7241 15.4226 30.9374 15.1108 31.405 13.8229C31.8644 12.5267 31.8562 12.4693 31.2081 12.4693C30.9374 12.4693 30.8308 12.5185 30.5518 12.8221ZM31.405 12.7728C31.405 12.8139 31.323 13.0764 31.2245 13.3635C31.003 13.9706 30.6749 14.3807 30.4616 14.3069C30.1827 14.2003 30.437 13.2569 30.8472 12.8795C31.0194 12.7236 31.405 12.6498 31.405 12.7728Z" fill="#0430CA"/>
<path d="M31.6493 14.5448C31.7312 14.3643 31.8823 14.0315 32.0531 13.667C32.2992 13.142 32.5207 12.7154 32.5453 12.7154C32.5699 12.7154 32.6438 12.7483 32.7012 12.7811C32.775 12.8303 32.6848 13.0928 32.3402 13.8393C31.9465 14.6761 31.8562 14.8237 31.7168 14.7827C31.6347 14.7663 31.5691 14.7171 31.5855 14.6843C31.5905 14.6742 31.6133 14.6242 31.6493 14.5448Z" fill="#0430CA"/>
<path d="M32.972 13.8557C32.4142 14.8565 32.3814 14.9468 32.5618 14.9878C32.6439 15.0124 32.7997 14.8155 33.0294 14.4135C33.4478 13.6834 33.6939 13.4291 33.9646 13.4701C34.2271 13.5029 34.1861 13.6752 33.7021 14.5202C33.3658 15.1108 33.3248 15.2257 33.4314 15.2831C33.497 15.3241 33.5873 15.3241 33.6201 15.2913C33.8088 15.0862 34.5225 13.7244 34.5225 13.5604C34.5225 13.2568 33.9564 13.0764 33.7103 13.3061C33.6201 13.3963 33.6119 13.3799 33.6529 13.2404C33.6857 13.1256 33.6693 13.0436 33.5873 13.0189C33.5052 12.9861 33.3248 13.2322 32.972 13.8557Z" fill="#0430CA"/>
<path fill-rule="evenodd" clip-rule="evenodd" d="M21.3148 14.6843C21.3148 14.2413 21.4543 13.9459 21.725 13.8065C21.8316 13.7573 21.9629 13.7327 22.0039 13.7573C22.5043 14.0362 22.5289 14.5284 22.0613 14.9468C21.766 15.2175 21.7578 15.2503 21.8562 15.439C22.0121 15.7425 22.209 15.7835 22.4715 15.5948C22.7668 15.3734 22.8735 15.5292 22.6192 15.7999C22.4387 15.9968 22.127 16.0542 21.848 15.9394C21.6347 15.8656 21.3148 15.1108 21.3148 14.6843ZM22.1352 14.3725C22.1352 14.2905 22.0941 14.1838 22.0367 14.1264C21.9055 13.9952 21.848 14.0034 21.725 14.151C21.6265 14.2659 21.5855 14.8155 21.6676 14.9058C21.7496 14.9796 22.1352 14.5366 22.1352 14.3725Z" fill="#0430CA"/>
<path fill-rule="evenodd" clip-rule="evenodd" d="M35.1378 14.0936C34.6127 14.4217 34.178 15.2503 34.3584 15.5866C34.4487 15.7507 34.8917 15.9968 35.0968 15.9968C35.2854 15.9968 35.1624 15.7589 34.9327 15.6769C34.744 15.6112 34.6866 15.5456 34.6866 15.3815C34.6866 15.2585 34.7276 15.0944 34.7686 15.0124C34.8424 14.8811 34.8917 14.8647 35.0639 14.9304C35.6464 15.1519 36.1632 14.8893 36.1632 14.3725C36.1632 13.9459 35.6218 13.7983 35.1378 14.0936ZM35.8269 14.3069C35.9089 14.4053 35.8925 14.4628 35.7612 14.594C35.5808 14.7745 35.4167 14.7991 35.146 14.6925C35.0065 14.6432 35.0229 14.6104 35.2608 14.4135C35.5561 14.1674 35.6874 14.1428 35.8269 14.3069Z" fill="#0430CA"/>
<path d="M20.1335 15.4882C20.076 15.1519 20.2401 14.6268 20.4698 14.4546C20.6421 14.3315 20.7159 14.3315 20.7898 14.4464C20.8226 14.5038 20.7651 14.6022 20.6749 14.6761C20.4206 14.8647 20.3632 15.2749 20.5272 15.7015C20.7241 16.2183 20.9292 16.3824 21.2327 16.2675C21.5363 16.1527 21.6347 16.2675 21.4296 16.4972C21.003 16.9648 20.3057 16.4234 20.1335 15.4882Z" fill="#0430CA"/>
<path fill-rule="evenodd" clip-rule="evenodd" d="M36.6963 14.9058C36.3108 15.1026 35.8432 15.5866 35.7447 15.8902C35.6709 16.1199 35.6791 16.2019 35.7939 16.3742C35.9498 16.6121 36.2616 16.7761 36.442 16.7105C36.6307 16.6367 36.6061 16.5054 36.401 16.4726C36.1221 16.4316 35.9826 16.1609 36.1057 15.9148C36.2123 15.7097 36.278 15.6933 36.7948 15.7999C37.1885 15.8738 37.4593 15.7753 37.5987 15.5046C37.7382 15.2257 37.6726 14.996 37.3936 14.8483C37.1803 14.7335 36.9835 14.7499 36.6963 14.9058ZM37.3444 15.1683C37.5167 15.439 37.0409 15.6769 36.6717 15.5046L36.4584 15.4062L36.6553 15.2503C36.8686 15.0944 37.2706 15.0452 37.3444 15.1683Z" fill="#0430CA"/>
<path d="M18.7307 15.8409C18.7635 15.7015 18.8456 15.5538 18.9194 15.5046C19.2804 15.2995 19.4116 15.4144 19.953 16.4152C20.3632 17.1863 20.3878 17.2684 20.2073 17.3422C20.1171 17.375 19.9941 17.2191 19.7644 16.7515C19.5921 16.407 19.3706 16.0296 19.2722 15.9148C19.1795 15.8045 19.1367 15.7535 19.0964 15.7555C19.0619 15.7572 19.0293 15.7979 18.9686 15.8738C18.7963 16.0953 18.862 16.3824 19.2722 17.1617C19.4526 17.5145 19.5757 17.8426 19.5511 17.8836C19.469 18.0149 19.2804 17.9739 19.2311 17.818C19.2065 17.7442 18.9768 17.3094 18.7307 16.8664C18.4108 16.2757 18.3123 16.0296 18.378 15.9886C18.4354 15.9558 18.5256 15.964 18.5749 16.005C18.6487 16.0624 18.6897 16.0214 18.7307 15.8409Z" fill="#0430CA"/>
<path d="M37.5002 16.3085C37.0818 16.7023 36.7373 17.0469 36.7373 17.0797C36.7373 17.1043 36.7865 17.1453 36.8521 17.1699C36.9178 17.1945 37.1721 17.0387 37.4428 16.8008C37.9842 16.325 38.378 16.1363 38.6487 16.2019C38.7718 16.2347 38.8784 16.2101 38.944 16.1281C39.0343 16.0214 39.0179 15.9968 38.8374 15.9476C38.7225 15.923 38.5667 15.9148 38.501 15.9476C38.4026 15.9804 38.3944 15.964 38.4518 15.841C38.5421 15.6851 38.4928 15.5866 38.3452 15.5866C38.296 15.5948 37.9104 15.9148 37.5002 16.3085Z" fill="#0430CA"/>
<path d="M39.8875 16.325C39.6989 16.325 39.625 16.1773 39.7481 16.0543C39.8137 15.9804 40.0598 15.9804 40.1254 16.046C40.2239 16.1445 40.0762 16.325 39.8875 16.325Z" fill="#0430CA"/>
<path d="M38.4272 17.0797C37.6233 17.6949 37.4674 17.8836 37.771 17.8836C37.9104 17.8836 39.5265 16.6859 39.5265 16.5793C39.5265 16.3414 39.1984 16.489 38.4272 17.0797Z" fill="#0430CA"/>
<path fill-rule="evenodd" clip-rule="evenodd" d="M17.3032 17.0551C17.3524 16.9238 17.4591 16.7762 17.5329 16.7351C17.7298 16.6203 17.8282 16.6367 18.0661 16.8254C18.3368 17.0387 18.3532 17.4735 18.1071 17.8754C17.9513 18.1297 17.9513 18.1543 18.0825 18.302C18.2876 18.5235 18.5665 18.4989 18.7552 18.2282C18.9111 18.0313 18.9275 18.0231 18.9849 18.1543C19.0505 18.3348 18.8044 18.6958 18.5583 18.786C17.9595 19.0075 17.0243 17.7114 17.3032 17.0551ZM17.9103 17.6867C18.0251 17.5145 18.0415 17.4078 17.9841 17.2438C17.9103 17.0305 17.7134 16.9238 17.5985 17.0305C17.5001 17.1289 17.5329 17.5965 17.6559 17.7606C17.7626 17.9082 17.7708 17.9 17.9103 17.6867Z" fill="#0430CA"/>
<path d="M39.1574 17.6457C38.657 17.9657 38.2468 18.2528 38.2304 18.2938C38.1483 18.5235 38.5093 18.4333 39.0507 18.1051C39.7316 17.6867 40.0351 17.5965 40.2648 17.7195C40.5192 17.8508 40.3797 18.0149 39.6004 18.4989C39.2312 18.7286 38.9031 18.9665 38.8867 19.0157C38.8046 19.27 39.1574 19.1716 39.8301 18.745C40.5684 18.2692 40.7571 18.0969 40.7571 17.9082C40.7571 17.7278 40.4371 17.4734 40.2074 17.4734C40.0105 17.4734 40.0023 17.4652 40.1336 17.3668C40.2566 17.2766 40.2566 17.2437 40.1664 17.1699C40.0844 17.0961 39.8547 17.2109 39.1574 17.6457Z" fill="#0430CA"/>
<path d="M15.9988 17.6047C15.9332 17.5391 15.9004 17.4242 15.925 17.3586C15.9906 17.1945 16.0973 17.1945 16.2285 17.3504C16.3106 17.4489 16.3106 17.4981 16.2285 17.6047C16.1301 17.7114 16.1055 17.7114 15.9988 17.6047Z" fill="#0430CA"/>
<path d="M6.90117 17.9C6.40896 18.1379 6.60584 18.9501 7.15547 18.9501C7.65589 18.9501 7.87738 18.2774 7.48361 17.9739C7.23751 17.7852 7.16368 17.777 6.90117 17.9Z" fill="#0430CA"/>
<path d="M16.4236 17.9944C16.4304 17.9762 16.4442 17.9606 16.4613 17.9414C16.468 17.9338 16.4753 17.9256 16.4829 17.9164C16.5403 17.8508 16.6059 17.8262 16.6387 17.859C17.7052 19.1223 17.9595 19.4669 17.9185 19.5653C17.8447 19.7786 17.7462 19.7048 17.2048 19.0567L17.0945 18.9232C16.5029 18.2072 16.3937 18.075 16.4236 17.9944Z" fill="#0430CA"/>
<path d="M15.8676 18.6301C15.7035 18.868 15.6953 19.3767 15.8512 19.6802C15.9168 19.8032 16.1219 20.0411 16.3106 20.2134C16.5977 20.4759 16.6961 20.517 16.9751 20.4923C17.2376 20.4759 17.336 20.4185 17.4427 20.2462C17.5493 20.074 17.5575 20.0001 17.4837 19.9263C17.4099 19.8525 17.3442 19.8689 17.2294 20.0165C17.0243 20.2626 16.7454 20.197 16.3598 19.8032C16.0235 19.4587 15.9414 19.1716 16.0727 18.8516C16.2039 18.5235 16.0563 18.3676 15.8676 18.6301Z" fill="#0430CA"/>
<path fill-rule="evenodd" clip-rule="evenodd" d="M39.584 19.6802C39.6414 19.4587 40.1008 19.1224 40.5274 18.9829C41.0114 18.827 41.4872 18.9009 41.7579 19.1798C42.1845 19.6064 42.1353 19.672 40.9786 20.2052C40.3961 20.4759 39.7645 20.7138 39.5594 20.7384C39.2395 20.7713 39.1738 20.7467 38.9523 20.5087C38.698 20.238 38.6242 19.9345 38.8129 19.9345C38.8785 19.9345 38.9687 20.0247 39.018 20.1396C39.141 20.4103 39.4117 20.5087 39.7317 20.4021C40.0598 20.2955 40.1747 20.1806 39.9614 20.1806C39.7399 20.1806 39.5266 19.8935 39.584 19.6802ZM41.1345 19.7786C41.6841 19.5161 41.7579 19.4177 41.5036 19.2782C41.0032 19.0157 39.6989 19.5489 39.9368 19.9263C40.0434 20.1068 40.5684 20.0411 41.1345 19.7786Z" fill="#0430CA"/>
<path d="M51.0442 19.3274C50.8801 19.4833 50.8473 19.5818 50.8801 19.754C50.9458 20.0165 51.2083 20.2626 51.438 20.2626C51.6431 20.2626 51.9958 19.9017 51.9958 19.6884C51.9958 19.59 51.9056 19.4259 51.7907 19.3192C51.5364 19.0567 51.3067 19.0567 51.0442 19.3274Z" fill="#0430CA"/>
<path d="M14.1368 20.5005C13.9727 20.1888 13.9809 19.9427 14.1778 19.6228C14.3173 19.3931 14.3665 19.3603 14.4649 19.4423C14.5716 19.5325 14.5716 19.5653 14.4649 19.713C14.2681 19.9919 14.3091 20.3201 14.5552 20.4841C14.7439 20.6072 14.8259 20.6072 15.2525 20.517C15.7939 20.4103 16.1385 20.5005 16.4338 20.8369C16.6881 21.1158 16.6553 21.6736 16.3764 21.9608C16.2041 22.1248 16.122 22.1577 16.0564 22.092C15.9826 22.0182 16.0072 21.9444 16.1385 21.7721C16.3682 21.485 16.3599 21.2389 16.1138 21.0092C15.9252 20.8369 15.8677 20.8205 15.3263 20.8779C14.6372 20.9435 14.3091 20.8451 14.1368 20.5005Z" fill="#0430CA"/>
<path d="M9.4772 19.7458C9.45259 19.7868 9.35415 20.0247 9.26391 20.2709C8.90295 21.2389 8.43535 21.4111 6.22861 21.4111C4.76019 21.4111 3.93163 21.3373 3.37379 21.1568C3.16871 21.0912 3.10308 21.0256 3.10308 20.8861C3.10308 20.6318 3.3902 20.3939 3.70193 20.3857C3.94804 20.3857 3.96445 20.3611 3.98906 20.074C4.01367 19.8033 3.99726 19.7704 3.81678 19.7704C3.20972 19.7704 2.6929 21.165 3.02925 21.8705C3.31637 22.453 4.57151 22.7483 6.58957 22.7073L7.90213 22.6827L7.92674 23.0929C7.95955 23.6343 7.82009 24.0855 7.56578 24.2496C7.39351 24.3726 7.20483 24.3808 6.1958 24.3316C5.55593 24.2988 4.45666 24.2167 3.75936 24.1511C3.46367 24.1268 3.18125 24.1024 2.94965 24.0824L2.94804 24.0823L2.94686 24.0822C2.63393 24.0552 2.41414 24.0363 2.38117 24.0363C2.29093 24.0363 2.28273 23.946 2.32375 23.6261C2.35656 23.3718 2.34836 23.2159 2.29914 23.2159C2.25812 23.2159 2.19249 23.38 2.16788 23.5851L2.11046 23.9542H1.57723C0.99478 23.9542 0.945559 24.0117 1.24909 24.3726C1.44597 24.6105 1.79052 25.4062 1.79052 25.6359C1.79052 25.8164 1.93818 25.7836 1.99561 25.5867C2.08585 25.3078 2.34015 25.2832 3.55427 25.398C4.18594 25.4637 5.27701 25.5375 5.9743 25.5621C7.18842 25.6113 7.25405 25.6113 7.46734 25.4391C7.77907 25.193 8.00877 24.4136 8.0744 23.38L8.13182 22.5186L8.59942 22.0182C9.08343 21.4932 9.54283 20.6974 9.63307 20.2216C9.68229 19.9509 9.56744 19.5982 9.4772 19.7458Z" fill="#0430CA"/>
<path fill-rule="evenodd" clip-rule="evenodd" d="M41.7179 21.425L41.9876 21.4111L42.1604 21.4029C43.7087 21.329 43.9163 21.3191 43.9936 21.4146C44.0056 21.4294 44.0144 21.4467 44.0246 21.4667C44.0289 21.4751 44.0334 21.4839 44.0384 21.4931C44.1205 21.6408 44.022 21.7064 42.7997 22.3135C42.0696 22.6827 41.4215 22.9616 41.3641 22.937C41.1508 22.8549 41.2492 22.7319 41.6594 22.5186L42.0696 22.3135L41.9301 22.0264C41.7989 21.7475 41.7825 21.7393 41.2821 21.7393C40.9047 21.7393 40.7652 21.7064 40.7242 21.6162C40.7201 21.6055 40.7156 21.5957 40.7116 21.5866C40.7012 21.5635 40.693 21.5453 40.6971 21.5305C40.712 21.4764 40.8901 21.4673 41.7179 21.425ZM42.9146 21.9361C43.2345 21.7721 43.5216 21.6244 43.538 21.608C43.5544 21.5916 43.5216 21.5834 43.456 21.5916C43.3904 21.5998 43.054 21.6244 42.7095 21.6326C42.3567 21.649 42.0696 21.6818 42.0696 21.7064C42.0696 21.7311 42.127 21.8541 42.1926 21.9854L42.3239 22.2315L42.9146 21.9361Z" fill="#0430CA"/>
<path d="M48.4847 21.7064C48.2468 21.8705 48.255 22.092 48.5093 22.5268C49.1574 23.6343 50.8309 24.2413 53.4724 24.3234L54.4979 24.3562L54.7194 24.791C55.1049 25.5375 55.0065 25.841 54.383 25.841C53.9893 25.841 50.0352 25.4554 49.7316 25.3898C49.6004 25.3652 49.5265 25.2504 49.4609 24.9796C49.4117 24.7746 49.3297 24.6269 49.2886 24.6515C49.2476 24.6761 49.2476 24.7992 49.2968 24.9632C49.4117 25.357 49.4035 25.357 48.9605 25.2996C48.739 25.2668 48.5503 25.275 48.5503 25.3078C48.5503 25.3406 48.698 25.5375 48.8867 25.7344C49.0672 25.9312 49.3297 26.325 49.4609 26.6039C49.5922 26.8829 49.6988 27.0551 49.6988 26.9813C49.6988 26.9157 49.748 26.7926 49.8055 26.7106C49.9039 26.5793 49.9859 26.5793 51.3805 26.7434C52.1927 26.8336 53.3166 26.9321 53.8826 26.9567C54.8178 27.0059 54.9244 26.9977 55.0967 26.8582C55.2608 26.727 55.2936 26.6203 55.2936 26.2348C55.3018 25.8492 55.2362 25.6359 54.9491 25.0207C54.6373 24.3726 54.6045 24.2577 54.6866 24.0773C54.744 23.9624 54.785 23.7573 54.785 23.6261C54.785 23.3143 54.5061 22.576 54.2846 22.3135C54.1451 22.1494 54.1287 22.1412 54.1697 22.2725C54.383 22.8385 54.4076 23.06 54.2928 23.1339C54.1205 23.2487 53.5955 23.2323 52.0204 23.0928C49.3871 22.8467 48.6324 22.6909 48.6324 22.3627C48.6324 22.1905 49.0179 22.0592 49.3789 22.1166C49.7562 22.1823 49.8137 22.0346 49.5101 21.7557C49.2804 21.5424 48.7554 21.5096 48.4847 21.7064Z" fill="#0430CA"/>
<path d="M13.9726 22.3955C13.8988 22.2561 13.866 22.1084 13.8906 22.0674C13.948 21.969 13.9644 21.969 14.1285 22.0346C14.1941 22.0592 14.2269 22.133 14.2023 22.1987C14.1531 22.3217 14.3664 22.6991 14.5797 22.8631C14.6535 22.9206 14.9406 23.101 15.2278 23.2569C15.6707 23.5112 15.7282 23.5686 15.6543 23.7081C15.5805 23.8476 15.5067 23.823 14.7109 23.3389C14.2433 23.0518 13.8086 22.8057 13.7511 22.7893C13.7019 22.7729 13.6773 22.6909 13.7101 22.6088C13.7511 22.494 13.8004 22.4858 13.9316 22.5596C14.0091 22.6002 14.0517 22.6225 14.0632 22.6117C14.0773 22.5984 14.0449 22.5355 13.9726 22.3955Z" fill="#0430CA"/>
<path d="M42.5948 23.4702C42.4143 23.7573 42.3568 23.7983 42.1272 23.7737C41.8975 23.7491 41.8646 23.7163 41.84 23.4784C41.8154 23.2733 41.7744 23.2159 41.6431 23.2159C41.4955 23.2159 41.4791 23.2487 41.5283 23.4784C41.6021 23.864 41.881 24.1183 42.2092 24.1183C42.4881 24.1183 42.685 23.9706 42.9967 23.5112C43.2264 23.1831 43.6284 23.2733 43.6284 23.6507C43.6284 23.7491 43.6776 23.7901 43.7761 23.7737C43.9811 23.7327 43.9155 23.38 43.6612 23.1503C43.4397 22.9534 43.1854 22.9206 42.9475 23.06C42.8655 23.1093 42.7096 23.2897 42.5948 23.4702Z" fill="#0430CA"/>
<path fill-rule="evenodd" clip-rule="evenodd" d="M13.5215 24.4546C13.2672 24.1511 13.218 23.8886 13.3574 23.6179C13.4723 23.4128 13.9317 23.4128 14.186 23.6179C14.3501 23.7491 14.3829 23.8558 14.3829 24.2167C14.3829 24.6925 14.4403 24.7746 14.7684 24.7746C15.0063 24.7746 15.1622 24.5859 15.1622 24.2906C15.1622 24.1839 15.2114 24.1183 15.2935 24.1183C15.4083 24.1183 15.4247 24.1839 15.3837 24.5039C15.3591 24.7418 15.2853 24.9304 15.195 24.9961C14.8259 25.2668 13.9481 24.9797 13.5215 24.4546ZM13.8414 24.3972C14.0876 24.6187 14.2352 24.471 14.1286 24.1101C14.0383 23.8066 13.7512 23.6507 13.6035 23.8312C13.4969 23.9624 13.5789 24.1593 13.8414 24.3972Z" fill="#0430CA"/>
<path d="M19.4607 24.1921C18.6568 24.389 17.9349 25.0043 17.5575 25.8246C17.377 26.2266 17.3442 26.4071 17.3442 27.0715C17.336 27.7853 17.3606 27.9001 17.5985 28.3841C17.9267 29.0486 18.4271 29.5736 19.0177 29.8525C19.4033 30.033 19.5756 30.0658 20.2482 30.0658C20.9619 30.0658 21.0768 30.0412 21.569 29.8033C22.0612 29.5572 22.6847 29.024 22.9964 28.5728C23.1113 28.4005 23.1031 28.3841 22.8488 28.1872C22.6929 28.0724 22.5452 27.9739 22.5206 27.9739C22.4878 27.9739 22.3237 28.1216 22.1597 28.3103C21.6839 28.8353 21.1999 29.0814 20.6092 29.0814C19.9611 29.0814 19.5592 28.8271 19.231 28.2118C18.9439 27.695 18.8536 26.7844 19.0177 26.1692C19.2228 25.4144 20.0596 24.8894 20.7487 25.0945C21.1506 25.2176 21.6592 25.6605 21.9464 26.1446C22.053 26.3332 22.1679 26.4973 22.1925 26.4973C22.3565 26.4973 22.8734 26.2922 22.8734 26.2266C22.8734 26.1856 22.7585 25.7098 22.6109 25.1765L22.3565 24.2003H22.053C21.8561 24.2003 21.7249 24.2413 21.7003 24.3234C21.6592 24.4218 21.5854 24.4136 21.1834 24.2824C20.7076 24.1183 19.9529 24.0773 19.4607 24.1921Z" fill="#0430CA"/>
<path d="M23.6937 25.7836C23.6937 25.0781 24.1859 24.5121 25.0309 24.2331C25.4903 24.0855 26.4337 24.1347 26.8357 24.3316C27.1392 24.4793 27.1638 24.4793 27.2622 24.3398C27.3197 24.2578 27.4755 24.2003 27.6396 24.2003H27.9185L28.1646 25.1765L28.4189 26.161L28.0498 26.2594L27.6806 26.3661L27.4755 26.0789C26.9259 25.3488 26.204 24.9468 25.6051 25.0453C25.0555 25.1355 24.8258 25.5703 25.1703 25.882C25.2606 25.9641 25.7938 26.1692 26.3598 26.3414C27.5329 26.7024 27.9103 26.8747 28.222 27.211C28.8537 27.8755 28.7307 28.9994 27.9759 29.5818C27.213 30.1643 26.0481 30.2709 25.1867 29.8279L24.7602 29.6146L24.6617 29.8197C24.5879 29.9838 24.5141 30.0248 24.2515 30.0248C24.0793 30.0248 23.9398 29.992 23.9398 29.9592C23.9398 29.8772 23.6281 28.1708 23.5707 27.9247C23.5378 27.7771 23.5789 27.736 23.825 27.695C23.9808 27.6622 24.1613 27.6212 24.2269 27.5966C24.2844 27.572 24.3582 27.6212 24.391 27.7196C24.4977 28.056 25.0637 28.6712 25.4657 28.8845C25.9743 29.1635 26.3927 29.2373 26.8028 29.1224C27.1802 29.024 27.3279 28.8681 27.3279 28.5892C27.3279 28.2283 27.0736 28.0724 25.9579 27.7196C24.7274 27.3341 24.3992 27.1782 24.0875 26.8501C23.8086 26.5547 23.6937 26.2512 23.6937 25.7836Z" fill="#0430CA"/>
<path d="M29.1737 24.6105C29.2065 24.9961 29.2229 25.0207 29.428 25.0207C29.8381 25.0207 29.8464 25.0781 29.8464 27.1126C29.8464 29.1552 29.8381 29.2045 29.4198 29.2045C29.1983 29.2045 29.1901 29.2209 29.1901 29.6146V30.0248L31.6593 30.0084L34.1368 29.9838L34.4895 28.9994C34.6864 28.4579 34.8423 27.9739 34.8423 27.9165C34.8505 27.8263 34.4403 27.6458 34.227 27.6458C34.1696 27.6458 34.0383 27.8181 33.9317 28.0232C33.5625 28.7615 33.0457 29.0404 32.0285 29.0404C31.4788 29.0404 31.3312 29.0158 31.2902 28.9091C31.2656 28.8353 31.2409 28.4661 31.2409 28.0888V27.3997H31.6019C32.0203 27.3997 32.2254 27.5966 32.2254 27.9903C32.2254 28.2036 32.2418 28.22 32.5945 28.22H32.9637V25.759H32.6027C32.4241 25.759 32.3359 25.759 32.286 25.8027C32.2374 25.8453 32.225 25.9293 32.2008 26.0953C32.1433 26.5055 32.0531 26.5793 31.5855 26.5793H31.2327L31.282 25.1437L31.7167 25.1191C32.7012 25.0617 33.3739 25.3652 33.7102 26.0133L33.8661 26.3332L34.2188 26.1938C34.4075 26.1199 34.5716 26.0543 34.588 26.0461C34.5962 26.0379 34.4649 25.6277 34.2844 25.1355L33.9645 24.2413L31.5609 24.2167L29.1491 24.2003L29.1737 24.6105Z" fill="#0430CA"/>
<path fill-rule="evenodd" clip-rule="evenodd" d="M36.081 27.3997C36.401 26.5629 36.8112 25.5047 36.9998 25.0371L37.328 24.2003H38.6077L39.3297 26.0621C40.4183 28.8685 40.5151 29.1182 40.6704 29.1624C40.6856 29.1667 40.7013 29.1691 40.7185 29.1717C40.7329 29.1738 40.7482 29.1761 40.7652 29.1798C40.9867 29.2209 41.0031 29.2455 41.0031 29.6228V30.0248H38.296V29.6146C38.296 29.2373 38.3124 29.2045 38.4929 29.2045C38.821 29.2045 38.8784 29.0404 38.7308 28.5646L38.5913 28.138H36.8276L36.6799 28.5974C36.524 29.0978 36.5733 29.2045 36.967 29.2045C37.1311 29.2045 37.1475 29.2455 37.1475 29.6146V30.0248H34.9326V29.6146C34.9326 29.2701 34.9572 29.2045 35.0802 29.2045C35.3427 29.2045 35.474 28.9666 36.081 27.3997ZM38.2878 27.3177L38.0417 26.5957C37.9022 26.202 37.7792 25.8738 37.7628 25.8574C37.7217 25.8164 37.6561 25.9477 37.4018 26.645L37.1557 27.3177H38.2878Z" fill="#0430CA"/>
<path d="M43.0048 24.7335C42.8079 24.9386 42.5946 25.1027 42.529 25.1027C42.3321 25.1027 42.1352 24.8484 42.1762 24.6351C42.2009 24.4956 42.1762 24.4464 42.0614 24.4464C41.7415 24.4464 41.9301 25.1765 42.2911 25.3406C42.6438 25.5047 42.8243 25.4472 43.1771 25.0535C43.5955 24.6023 43.8908 24.5777 43.9564 24.9714C44.0056 25.2422 44.1779 25.3488 44.2517 25.1519C44.3256 24.9468 44.1369 24.5613 43.9072 24.4546C43.5544 24.2988 43.3822 24.3562 43.0048 24.7335Z" fill="#0430CA"/>
<path d="M12.6928 25.0945C12.9307 25.2257 13.0292 25.2011 13.0292 25.0207C13.0292 24.9304 13.0866 24.8566 13.1522 24.8566C13.2343 24.8566 13.2753 24.9386 13.2753 25.0945C13.2753 25.316 13.3163 25.3406 14.0218 25.5949C14.7519 25.8574 14.7765 25.8656 14.8832 25.718C15.0554 25.4801 15.2277 25.6769 15.0965 25.9641C14.9734 26.2348 14.7765 26.2266 13.9316 25.9148C13.4968 25.759 13.2261 25.7016 13.2097 25.7508C13.1604 25.8984 12.9471 25.8492 12.9471 25.6933C12.9471 25.6195 12.8651 25.5129 12.7667 25.4719C12.66 25.4226 12.5698 25.3078 12.5534 25.2011C12.5288 25.0289 12.5452 25.0207 12.6928 25.0945Z" fill="#0430CA"/>
<path fill-rule="evenodd" clip-rule="evenodd" d="M42.5045 25.8738C42.2748 25.9805 42.2338 26.0379 42.2338 26.2922C42.2338 26.809 42.7752 27.1536 43.6038 27.1536C44.0632 27.1536 44.3503 27.0305 44.457 26.8008C44.58 26.5301 44.3749 26.1364 44.0222 25.9559C43.653 25.7672 42.8327 25.7262 42.5045 25.8738ZM43.9976 26.284C44.3093 26.4891 44.2683 26.727 43.9073 26.7926C43.0788 26.9485 42.119 26.4809 42.6276 26.1692C42.8245 26.0461 43.7515 26.1199 43.9976 26.284Z" fill="#0430CA"/>
<path d="M13.4558 26.7926C12.9144 26.6614 12.7831 26.6039 12.7831 26.4809C12.7831 26.3989 12.8159 26.3332 12.8569 26.3332C12.98 26.3332 14.9324 26.8172 14.9734 26.8582C15.0473 26.9239 14.9078 27.0715 14.7766 27.0715C14.6617 27.0715 14.6617 27.0879 14.7848 27.2274C14.875 27.3258 14.916 27.4817 14.8996 27.6622C14.875 27.9165 14.8504 27.9329 14.5469 27.9493C14.0547 27.9821 12.7503 27.6294 12.7175 27.4571C12.6847 27.2766 12.8323 27.2766 13.6035 27.4817C13.9398 27.572 14.3254 27.6458 14.4484 27.6458C14.6453 27.6458 14.6781 27.613 14.6535 27.4653C14.6125 27.1946 14.2105 26.9649 13.4558 26.7926Z" fill="#0430CA"/>
<path d="M0.223587 26.8172C-0.211199 27.2602 0.0184991 27.9247 0.650169 28.0232C1.33106 28.138 1.75764 27.252 1.24902 26.7844C0.937291 26.4973 0.53532 26.5055 0.223587 26.8172Z" fill="#0430CA"/>
<path d="M6.75361 27.0715L6.90948 26.8665C6.99972 26.7516 7.09816 26.6614 7.12277 26.6614C7.15559 26.6614 7.22121 26.8172 7.27864 27.0059L7.38528 27.3505L7.51654 27.129C7.6642 26.8911 8.09899 26.7024 8.33689 26.7762C8.86191 26.9485 9.02598 27.6376 8.64042 28.0149C8.3615 28.3021 7.87749 28.2939 7.58217 28.0067C7.4181 27.8427 7.36888 27.8181 7.36888 27.9165C7.36888 27.9903 7.27864 28.1134 7.17199 28.1872C6.98331 28.3021 6.81924 28.3021 5.05549 28.1462L4.68532 28.114C2.7182 27.9424 2.42355 27.9167 2.27362 28.0517C2.24721 28.0755 2.22529 28.1043 2.19951 28.1381C2.18977 28.1509 2.17916 28.1648 2.16786 28.179L1.97918 28.4169L1.7987 27.9493C1.569 27.3176 1.57721 27.0305 1.82331 26.8665C2.00379 26.7434 2.22528 26.7516 4.3828 26.8993L6.75361 27.0715Z" fill="#0430CA"/>
<path d="M42.8079 27.572C42.4634 27.6458 42.2993 27.8509 42.3321 28.179C42.3649 28.54 42.6275 28.5646 42.6603 28.2036C42.6849 27.9411 42.6931 27.9329 43.1115 27.9083C43.7841 27.8673 44.2846 28.179 44.2846 28.6384C44.2846 28.7205 44.342 28.7943 44.4076 28.7943C44.5717 28.7943 44.5717 28.3103 44.3994 28.0724C44.1369 27.695 43.374 27.4571 42.8079 27.572Z" fill="#0430CA"/>
<path d="M48.3043 28.663C48.3043 28.3595 48.5586 27.9985 48.8211 27.9493C48.9195 27.9329 49.0098 27.9083 49.0262 27.9001C49.1082 27.8673 49.6168 28.1462 49.6907 28.2775C49.7645 28.4087 49.7727 28.4087 49.7809 28.2857C49.7809 28.015 50.1501 27.8673 50.6669 27.9247C51.84 28.0642 54.2682 28.3021 54.5143 28.3021C54.7276 28.3021 54.8097 28.2529 54.8835 28.097C54.9327 27.9821 55.0147 27.9001 55.064 27.9165C55.2034 27.9657 55.4741 28.9091 55.4085 29.147C55.3511 29.3767 54.9081 29.5818 54.6456 29.4998C54.5636 29.4752 53.5627 29.3767 52.4142 29.2865L50.3305 29.106L50.1501 29.3275L49.9778 29.549L49.7809 28.8927L49.543 29.1306C49.2231 29.4424 48.8539 29.4506 48.534 29.147C48.3781 28.9994 48.3043 28.8435 48.3043 28.663Z" fill="#0430CA"/>
<path d="M55.9254 28.3431C55.6137 28.5154 55.4742 28.8927 55.6055 29.2045C55.7121 29.467 56.0567 29.6967 56.3356 29.6967C56.4258 29.6967 56.6063 29.5982 56.7458 29.4834C56.9509 29.3193 57.0001 29.2045 57.0001 28.9584C57.0001 28.7123 56.9509 28.5974 56.7458 28.4333C56.4669 28.1954 56.2454 28.1708 55.9254 28.3431Z" fill="#0430CA"/>
<path fill-rule="evenodd" clip-rule="evenodd" d="M12.8815 29.1716C12.6683 28.8927 12.6518 28.6876 12.8323 28.5154C12.9226 28.4251 13.1112 28.3841 13.4476 28.3841C14.3254 28.3841 14.998 28.8107 14.998 29.3521C14.998 29.5244 15.2031 29.6146 15.5969 29.6146C15.761 29.6146 15.8184 29.6556 15.8184 29.7787L15.8184 29.785C15.8184 29.827 15.8185 29.86 15.8038 29.8841C15.7497 29.9727 15.4961 29.9397 14.3079 29.785L14.2597 29.7787C13.5624 29.6885 12.939 29.6146 12.8897 29.6146C12.8323 29.6146 12.7831 29.5408 12.7831 29.4506C12.7831 29.3357 12.8241 29.3029 12.9226 29.3439C13.0374 29.3931 13.0292 29.3603 12.8815 29.1716ZM14.7027 29.3931C14.7848 29.1962 14.6125 28.983 14.2597 28.8435C13.8249 28.6712 13.1276 28.663 13.062 28.8353C12.9718 29.065 13.103 29.1962 13.5378 29.3193C14.2351 29.508 14.6535 29.5326 14.7027 29.3931Z" fill="#0430CA"/>
<path d="M42.3157 28.9583C42.3157 29.0486 42.3322 29.1224 42.3486 29.1224C42.365 29.1224 42.7998 29.2291 43.3084 29.3685C44.4076 29.6556 44.4487 29.6639 44.4487 29.467C44.4487 29.3521 44.2518 29.2701 43.4314 29.0568C43.2791 29.0187 43.1329 28.9819 43.0002 28.9484C42.6468 28.8593 42.3888 28.7943 42.365 28.7943C42.3404 28.7943 42.3157 28.8681 42.3157 28.9583Z" fill="#0430CA"/>
<path d="M7.36884 29.6392L7.41806 29.3767L7.47548 29.106L7.71338 29.6064C7.84464 29.8771 8.11536 30.2545 8.31224 30.4514C8.51733 30.6483 8.6814 30.8287 8.6814 30.8616C8.6814 30.9026 8.50092 30.9272 8.27122 30.9272C8.04413 30.9272 7.93346 30.9272 7.89388 30.9802C7.85626 31.0307 7.8829 31.129 7.93488 31.321C7.9923 31.5178 7.9923 31.5835 7.92668 31.5671C7.87745 31.5507 7.79542 31.3866 7.73799 31.2143C7.73351 31.1974 7.72946 31.1813 7.72559 31.1658C7.71031 31.105 7.69783 31.0552 7.67242 31.0134C7.55907 30.8265 7.18838 30.7957 5.16379 30.6278L4.71911 30.5908L2.43853 30.4104L2.26626 30.5826C2.11039 30.7385 2.10219 30.7877 2.18423 31.0749C2.24165 31.2471 2.3647 31.5178 2.47135 31.6737C2.62721 31.9034 2.70925 31.9526 2.94715 31.9444C3.47217 31.9198 5.31796 32.0757 5.99885 32.2069C7.19656 32.4284 7.7462 32.6827 8.36146 33.3062C9.11618 34.0691 9.18181 34.5449 8.53373 34.6762C8.11536 34.7582 7.93488 34.7172 7.70518 34.4957C7.45908 34.2578 7.54111 34.1019 7.88566 34.1676C8.19739 34.225 8.59936 34.0937 8.59936 33.9379C8.59936 33.6672 8.27943 33.5359 7.35243 33.4211C5.95784 33.257 3.34912 33.0847 3.062 33.1421C2.74206 33.1996 2.70925 33.4211 2.93074 33.9297C3.17685 34.4875 2.92254 34.2332 2.61081 33.6097C2.34829 33.0929 2.29087 32.5351 2.45494 32.2315C2.52877 32.0921 2.47955 31.9444 2.19243 31.3948C1.92171 30.8698 1.83968 30.6237 1.80686 30.1807C1.77405 29.7049 1.79046 29.6146 1.94632 29.4588C2.09399 29.3111 2.20884 29.2865 2.8323 29.2865C3.23427 29.2865 4.14486 29.3439 4.86677 29.4095C5.09663 29.4304 5.34064 29.453 5.5768 29.4748L5.58723 29.4758C6.08878 29.5222 6.55342 29.5652 6.76998 29.5818L7.36884 29.6392Z" fill="#0430CA"/>
<path d="M44.8752 29.631C44.8916 29.7541 44.9572 29.8197 45.0638 29.8197C45.3099 29.8197 45.2853 29.4998 45.0392 29.467C44.8752 29.4424 44.8505 29.467 44.8752 29.631Z" fill="#0430CA"/>
<path fill-rule="evenodd" clip-rule="evenodd" d="M42.1927 30.1807C42.1517 30.0084 42.1763 29.9346 42.3322 29.8279C42.5783 29.6474 43.0295 29.7131 43.5791 30.0084C44.178 30.3365 44.3995 30.7959 44.2354 31.3866C44.1868 31.5648 44.1702 31.559 43.1904 31.2192L43.1526 31.2061C42.5619 31.001 42.1107 30.8041 42.1107 30.7467C42.1107 30.6893 42.1927 30.6401 42.2994 30.6483C42.4553 30.6483 42.4635 30.6401 42.365 30.5252C42.2994 30.4514 42.2256 30.2955 42.1927 30.1807ZM44.0385 30.9764C44.0385 30.6811 43.6119 30.2955 43.1197 30.1479C42.5947 29.992 42.5701 29.992 42.5045 30.1561C42.4224 30.3776 42.5783 30.5416 43.1361 30.8123C43.9483 31.2061 44.0385 31.2225 44.0385 30.9764Z" fill="#0430CA"/>
<path d="M13.5624 30.4104C13.144 30.4432 12.8651 30.6155 12.8651 30.8205C12.8651 30.8862 12.9635 31.042 13.0948 31.1651C13.2753 31.3456 13.2999 31.4112 13.2178 31.4932C13.0456 31.6491 13.0948 31.9034 13.3245 32.1167C13.4968 32.2726 13.5132 32.3218 13.4065 32.3218C13.3327 32.3218 13.2753 32.3792 13.2753 32.4448C13.2753 32.5433 13.3983 32.5679 13.8823 32.5679C14.2105 32.5679 14.7109 32.5433 14.9898 32.5187C15.4 32.4694 15.4902 32.4366 15.4902 32.3136C15.4902 32.1741 15.4328 32.1659 14.7273 32.2151C14.1038 32.2562 13.9151 32.2397 13.7018 32.1249C13.5296 32.0347 13.4393 31.9362 13.4557 31.846C13.4804 31.7311 13.6362 31.6901 14.4073 31.6327C15.1867 31.5671 15.3261 31.5342 15.3097 31.4276C15.2851 31.321 15.1703 31.3046 14.5714 31.321C13.8085 31.3538 13.3245 31.2471 13.2424 31.0338C13.1522 30.7959 13.3327 30.7385 14.2187 30.6975C14.9898 30.6647 15.08 30.6401 15.08 30.5088C15.08 30.3694 15.0144 30.3529 14.5304 30.3694C14.2187 30.3776 13.7921 30.394 13.5624 30.4104Z" fill="#0430CA"/>
<path d="M54.7686 30.8698C54.8588 30.8534 54.9737 30.7385 55.0393 30.6319C55.1624 30.394 55.228 30.476 55.31 30.9436C55.3428 31.1077 55.4905 31.4358 55.6464 31.6737C55.8022 31.9034 55.9335 32.1249 55.9335 32.1659C55.9335 32.1987 55.7038 32.2397 55.4249 32.2562L55.4228 32.2563C54.9244 32.2808 54.9162 32.2812 54.8424 32.5679C54.6948 33.1585 54.5553 33.0765 54.6948 32.4776L54.7604 32.1741L54.383 32.1249C53.7268 32.0429 51.4954 31.8378 50.552 31.7804L49.6496 31.7229L49.4363 31.9772C49.2148 32.2397 49.0672 32.9863 49.1656 33.3144C49.2148 33.4621 49.2641 33.4785 49.5184 33.4293C50.0516 33.3226 51.7743 33.3882 52.5455 33.5441C53.5463 33.7492 53.9236 33.9953 54.0303 34.4957C54.1944 35.2586 53.6611 36.3415 53.1197 36.3415C52.9966 36.3415 52.972 36.2841 52.9966 36.0298C53.0213 35.7508 53.0377 35.7262 53.2838 35.7262C53.5955 35.718 53.8826 35.4801 53.8826 35.2258C53.8826 35.0864 53.817 35.0207 53.6201 34.9551C53.0377 34.7664 52.0532 34.6762 50.6422 34.668C48.5504 34.6598 48.1074 34.8403 47.771 35.8493C47.6316 36.2595 47.5167 36.3579 47.4347 36.1364C47.369 35.9805 47.6234 35.234 47.8777 34.8239C47.9925 34.6434 48.296 34.266 48.5586 33.9871L49.0426 33.4867V32.7976C49.0426 32.0757 49.1164 31.7065 49.3871 31.0749C49.5348 30.7385 49.6004 30.6729 49.8875 30.5908C50.2403 30.5006 50.6997 30.5252 53.1197 30.7631C53.9401 30.8452 54.6866 30.8944 54.7686 30.8698Z" fill="#0430CA"/>
<path d="M41.9056 31.6573C41.7251 31.9937 41.8892 32.2398 42.1025 31.9526C42.1845 31.846 42.2912 31.8706 42.9146 32.1741C43.5545 32.4777 43.6366 32.5433 43.6037 32.7074C43.5873 32.814 43.6201 32.9371 43.6776 32.9863C43.7596 33.0519 43.8006 33.0273 43.8416 32.8632C43.8827 32.6909 43.9155 32.6663 44.0385 32.732C44.1206 32.7812 44.2272 32.814 44.2764 32.814C44.4323 32.814 44.3749 32.5761 44.2026 32.4695C44.1124 32.412 44.0385 32.3054 44.0385 32.2234C44.0385 32.0347 43.8745 31.9444 43.7842 32.0839C43.735 32.1741 43.5791 32.1249 43.0131 31.846C42.2338 31.4604 42.0369 31.4276 41.9056 31.6573Z" fill="#0430CA"/>
<path d="M42.4962 33.1832C41.8399 32.7976 41.5938 32.6171 41.6266 32.5269C41.6594 32.4613 41.7086 32.4038 41.7415 32.4038C41.8727 32.4038 43.579 33.4375 43.6119 33.5359C43.6939 33.7902 43.3329 33.6754 42.4962 33.1832Z" fill="#0430CA"/>
<path fill-rule="evenodd" clip-rule="evenodd" d="M14.6699 33.0273C14.0464 33.2324 13.8659 33.3308 13.7757 33.5195C13.7019 33.6836 13.7101 33.7738 13.8085 33.9543C13.9726 34.2742 14.3253 34.4055 14.9078 34.3481C15.7527 34.2742 16.2039 33.8887 15.9988 33.4211C15.843 33.0929 15.1375 32.8796 14.6699 33.0273ZM15.6543 33.4293C15.9004 33.7328 15.3836 34.0445 14.6453 34.0445C13.8905 34.0445 13.7839 33.6508 14.4812 33.4375C15.0062 33.2816 15.523 33.2734 15.6543 33.4293Z" fill="#0430CA"/>
<path fill-rule="evenodd" clip-rule="evenodd" d="M41.2985 34.4301C41.1098 34.1758 41.0852 33.7164 41.2411 33.5195C41.5282 33.1749 42.5126 33.5605 42.89 34.1676C43.2591 34.7664 43.0212 35.3489 42.447 35.2422C42.1271 35.1766 41.561 34.7828 41.2985 34.4301ZM42.6849 34.9141C42.9802 34.8074 42.7505 34.348 42.2091 33.9543C41.8563 33.7 41.4626 33.6425 41.3887 33.8312C41.2657 34.1348 42.3568 35.0453 42.6849 34.9141Z" fill="#0430CA"/>
<path d="M43.8908 33.8969C43.9072 34.0199 43.9728 34.0855 44.0794 34.0855C44.3255 34.0855 44.3009 33.7656 44.0548 33.7328C43.8908 33.7082 43.8661 33.7328 43.8908 33.8969Z" fill="#0430CA"/>
<path d="M16.1794 34.5778C16.0809 34.3973 16.0809 34.3317 16.163 34.2824C16.4009 34.1348 16.7044 34.7664 16.5649 35.1192C16.3188 35.7673 14.9407 36.2759 14.1531 36.0216C13.8414 35.9149 13.4394 35.513 13.4394 35.3079C13.4394 35.1192 13.6199 35.1766 13.8414 35.4473C14.2105 35.8821 15.1539 35.8493 15.8512 35.3735C16.245 35.1028 16.3352 34.8813 16.1794 34.5778Z" fill="#0430CA"/>
<path d="M40.6505 34.8157C40.6176 34.8895 40.8227 35.1356 41.1755 35.4637C41.7415 36.0052 41.9384 36.3169 41.8564 36.5466C41.7661 36.7681 41.5692 36.6778 40.9376 36.0954C40.5848 35.7837 40.2731 35.5212 40.2403 35.5212C40.2075 35.5212 40.1582 35.5704 40.1336 35.636C40.0844 35.7591 41.036 36.7189 41.438 36.9322C41.8071 37.1372 42.0286 36.9814 42.0286 36.522C42.0286 36.2759 42.0533 36.2103 42.1271 36.2759C42.2255 36.3579 42.3978 36.3005 42.3978 36.1856C42.3978 36.1118 40.8309 34.7008 40.7489 34.7008C40.7161 34.7008 40.6751 34.75 40.6505 34.8157Z" fill="#0430CA"/>
<path d="M9.50998 36.3087C9.37052 36.0544 9.25567 35.8329 9.25567 35.8083C9.25567 35.7837 9.30489 35.7673 9.37052 35.7673C9.77249 35.7673 10.4042 37.2275 10.4042 38.1381V38.6221L10.9374 39.0897C11.5609 39.6311 12.1187 40.4104 12.1843 40.8124C12.2499 41.2062 12.0695 41.4277 10.2155 43.2488C8.98963 44.4556 8.71285 44.7281 8.73038 44.98C8.73549 45.0534 8.7656 45.1251 8.80448 45.2177C8.8537 45.3407 8.79627 45.3325 8.40251 45.1521C8.1482 45.0372 7.73802 44.9224 7.49192 44.8977C7.23761 44.8731 7.01612 44.8157 6.99151 44.7829C6.96689 44.7419 7.09815 44.5532 7.27863 44.3563L7.61497 43.9954L7.40988 43.7246C7.10635 43.3145 7.16378 43.2242 7.49192 43.5934L7.77904 43.9133L8.6158 43.1012C9.92015 41.8625 11.2573 40.4515 11.3394 40.2464C11.3804 40.1397 11.3886 39.9674 11.364 39.8608C11.2983 39.6147 10.5846 38.8846 10.4124 38.8846C10.3385 38.8846 10.1909 39.0569 10.076 39.2701C9.96117 39.4916 9.46896 40.0741 8.96855 40.5745C8.27125 41.28 7.94311 41.5425 7.50833 41.7558C6.99971 42.0101 6.93408 42.0183 6.63055 41.9281C5.99068 41.7394 5.37542 40.6976 5.5723 40.1315C5.67895 39.828 5.75278 39.8116 5.97427 40.0331C6.16295 40.2218 6.18756 40.4104 6.02349 40.5007C5.8184 40.6155 5.78559 40.9683 5.95786 41.1816C6.11373 41.3702 6.13834 41.3784 6.35163 41.2636C6.65516 41.1159 8.35329 39.4178 8.94394 38.6795C9.82992 37.572 9.94476 37.0716 9.50998 36.3087Z" fill="#0430CA"/>
<path d="M6.19567 36.5712C5.88394 36.9157 6.14645 37.49 6.61405 37.49C6.74531 37.49 6.90938 37.4244 6.98321 37.3423C7.16368 37.1372 7.15548 36.7271 6.975 36.563C6.76992 36.3825 6.35974 36.3907 6.19567 36.5712Z" fill="#0430CA"/>
<path d="M46.3847 38.1299C46.3847 37.5228 46.4093 37.3095 46.5241 37.1372C46.6964 36.8747 46.9179 36.8583 47.2788 37.0798C47.5906 37.2685 47.7382 37.6048 47.6398 37.8838C47.5496 38.1217 47.4593 38.1134 47.3199 37.8673C47.205 37.6459 46.8112 37.4408 46.6718 37.531C46.3354 37.7361 46.7538 38.3185 48.7473 40.4761C49.2067 40.9601 49.6004 41.4113 49.6415 41.4687C49.7399 41.641 50.2649 41.9363 50.388 41.8953C50.4536 41.8707 50.5767 41.6492 50.6751 41.4113C50.8884 40.8452 50.8966 41.1651 50.6833 41.8624C50.511 42.4039 50.2157 42.7894 49.904 42.8715C49.7727 42.9043 49.6989 43.0191 49.6168 43.3391C49.3215 44.5286 48.8785 45.2013 48.3781 45.2013C48.1812 45.2013 47.9925 45.0618 47.3773 44.4383C46.9589 44.0282 46.2206 43.2242 45.7284 42.6582C45.2362 42.0921 44.7604 41.5999 44.6783 41.5589C44.5717 41.5015 44.4814 41.5261 44.3666 41.6328L44.3548 41.6431C44.2805 41.7086 44.2353 41.7484 44.2198 41.739C44.1959 41.7246 44.2428 41.5931 44.3621 41.2584L44.3748 41.2226C44.4897 40.9026 44.5389 40.5663 44.5307 40.2382L44.5295 40.2001C44.5217 39.944 44.5146 39.7108 44.5225 39.6639C44.5225 39.6229 44.6783 39.7295 44.8506 39.9018L45.1787 40.2217L45.3182 39.9182C45.4002 39.7542 45.4905 39.6229 45.5315 39.6229C45.6381 39.6229 45.6053 39.7624 45.4249 40.0741L45.2526 40.3694L45.7694 40.9601C46.0113 41.2365 46.6083 41.8913 47.1926 42.5322L47.5167 42.8879C48.5668 44.0364 48.7637 44.2251 48.9524 44.2004C49.1985 44.1758 49.4446 43.7575 49.5102 43.2488C49.5512 42.9535 49.5266 42.9125 48.7309 42.1168C47.7957 41.1734 47.1312 40.3038 46.6964 39.4752C46.4175 38.942 46.3929 38.8518 46.3847 38.1299Z" fill="#0430CA"/>
<path d="M49.9203 37.0634C49.7399 37.2685 49.7481 37.6787 49.9285 37.8428C50.2731 38.1627 50.8473 37.9084 50.8473 37.449C50.8473 36.9814 50.2239 36.7271 49.9203 37.0634Z" fill="#0430CA"/>
<path d="M13.5214 42.1742C13.3901 41.9199 13.4229 41.5999 13.6116 41.3374C13.7429 41.1487 13.8413 41.0995 14.0792 41.0995C14.6535 41.0995 14.998 41.5343 14.8339 42.0511C14.7355 42.33 14.2679 42.6254 14.0464 42.5433C13.9069 42.4941 13.8987 42.5926 14.0218 42.7156C14.1695 42.8633 13.9726 43.2652 13.6116 43.5688C13.4475 43.7164 12.7338 44.3973 12.0201 45.0946C10.7486 46.3498 10.7322 46.3744 10.7814 46.6533C10.8306 46.924 10.8224 46.9404 10.6419 46.883C10.281 46.7763 9.72316 46.4728 9.64112 46.3416C9.60011 46.2677 9.5837 46.1201 9.60831 46.0052C9.64112 45.8904 10.3794 45.0946 11.3064 44.1676C12.8979 42.5926 12.9553 42.5269 12.9061 42.2644C12.8487 41.9527 12.9471 41.9281 13.3409 42.166C13.6034 42.33 13.6116 42.33 13.5214 42.1742Z" fill="#0430CA"/>
<path d="M42.4305 41.764C42.0942 41.8543 41.9547 42.1332 41.9794 42.6746C41.9876 42.9699 42.3813 43.1832 42.8161 43.1258L43.1196 43.0848L42.9638 43.3473C42.7505 43.6918 42.7669 43.7575 43.054 43.6918C43.2837 43.6508 43.3493 43.7001 43.8169 44.1923C44.0959 44.4958 44.6209 45.0618 44.9818 45.4474C45.1845 45.6639 45.4259 45.9243 45.6409 46.1561C45.8087 46.3372 45.9604 46.5008 46.0647 46.6123C46.4749 47.0635 46.7866 47.2358 47.0245 47.1455C47.1722 47.0881 47.5331 46.4728 47.6152 46.1611C47.6384 46.0526 47.6507 45.9954 47.6278 45.9703C47.6022 45.9424 47.5326 45.9546 47.3855 45.9806C47.1065 46.0298 47.0819 46.0134 46.319 45.1849C45.8842 44.7173 45.2279 43.9872 44.8506 43.5524C44.1123 42.6992 43.8005 42.4859 43.538 42.6418C43.3986 42.732 43.3822 42.7156 43.3822 42.4695C43.3822 41.9609 42.9474 41.6328 42.4305 41.764Z" fill="#0430CA"/>
<path d="M14.8586 44.1102C15.2032 43.7821 15.2278 43.6837 15.0227 43.454C14.9483 43.3665 14.9136 43.3256 14.9211 43.3153C14.9276 43.3062 14.9664 43.3205 15.0391 43.3473C15.4821 43.5196 15.7446 43.5688 16.3353 43.5688C16.6798 43.5688 16.9669 43.5934 16.9669 43.618C16.9669 43.6508 16.8521 43.7985 16.7126 43.938L16.4501 44.2087L16.7536 44.3481C17.049 44.4958 17.1392 44.6271 16.9423 44.6271C16.8849 44.6271 16.7618 44.5696 16.6716 44.504L16.6573 44.4933C16.3439 44.2574 16.3437 44.2572 14.1613 46.4072C12.5206 48.0069 12.4058 48.1792 12.816 48.4417C12.9226 48.5155 13.2179 48.614 13.4804 48.6714C13.948 48.7616 13.9562 48.7616 14.0793 48.5647C14.2844 48.2284 15.9087 46.6533 16.4829 46.2267C17.4263 45.5294 17.9185 45.349 18.8619 45.3572C19.4198 45.3572 19.8382 45.5376 19.8382 45.7837C19.8382 46.2267 19.3295 46.7354 18.9686 46.6451C18.7143 46.5795 18.7143 46.4072 18.9686 46.2431C19.1819 46.0955 19.3131 45.7099 19.1901 45.5869C19.0588 45.4556 18.7225 45.5951 18.3041 45.9478C17.6068 46.5385 15.154 49.0077 15.0391 49.2292C14.9325 49.4179 14.9407 49.4589 15.0637 49.5738C15.1375 49.6394 15.359 49.7378 15.5559 49.7871C16.0153 49.9183 15.9907 49.9921 15.5149 49.9183C14.8668 49.8281 14.2188 49.4917 14.0465 49.1718C13.9316 48.9585 13.8086 48.8683 13.5625 48.8026C12.3566 48.4991 12.012 48.3268 11.6839 47.8838C11.5198 47.6623 11.5198 47.6541 11.6675 47.3752C11.7987 47.1455 13.6281 45.2669 14.8586 44.1102Z" fill="#0430CA"/>
<path d="M41.0032 44.6352C40.7571 44.7665 40.2731 45.1521 39.9368 45.4802L39.3215 46.0873L38.7473 46.0955C37.8777 46.1119 36.9015 46.4318 36.5405 46.8256C36.2698 47.1291 36.4421 47.1619 36.9425 46.9158C37.8941 46.4482 38.3371 46.6205 39.8793 48.0315C40.8556 48.9175 41.9056 50.1316 41.9056 50.3695C41.9056 50.714 41.2493 50.8453 41.0853 50.5336C40.9704 50.3121 40.8227 50.3285 40.5848 50.5828C40.388 50.7879 40.388 50.7961 40.5438 50.9109C40.7653 51.075 41.1755 51.0586 41.5939 50.8617C42.4634 50.4679 42.7506 49.8527 42.406 49.0979C42.0943 48.4007 40.6915 46.8666 39.9286 46.3826C39.7481 46.2759 39.6086 46.1447 39.6086 46.0873C39.6086 46.038 39.7891 45.8165 40.0106 45.6033C40.3387 45.2669 40.4536 45.2013 40.7079 45.2013C40.8802 45.2013 41.077 45.2341 41.1509 45.2751C41.2739 45.3407 43.3002 47.4901 44.2436 48.5483C44.5471 48.8847 44.5471 48.9011 44.3995 49.0159C43.9893 49.3112 43.9237 49.3769 43.9729 49.4261C43.9975 49.4589 44.1698 49.3851 44.342 49.2702L44.6538 49.0569L44.9737 49.3851C45.146 49.5737 45.3347 49.705 45.3839 49.6886C45.4331 49.6722 45.4987 49.4507 45.5315 49.1964C45.5644 48.9421 45.6874 48.5483 45.8023 48.3268C46.0484 47.8264 46.0566 47.7936 45.8351 47.9084C45.7448 47.9659 45.5808 47.9823 45.4905 47.9577C45.3921 47.9331 44.7932 47.3342 44.1616 46.6287C43.5299 45.9232 42.7834 45.1275 42.4963 44.8649C41.881 44.2907 41.6841 44.2579 41.0032 44.6352Z" fill="#0430CA"/>
<path d="M8.5174 47.2029C8.5174 46.9568 8.71429 46.5467 8.86195 46.4892C9.12446 46.3826 9.50182 46.44 9.71512 46.6287C10.2073 47.0471 9.87098 47.8592 9.2065 47.8592C8.85375 47.8592 8.5174 47.5393 8.5174 47.2029Z" fill="#0430CA"/>
<path d="M20.7487 46.6697C20.6174 46.7517 20.6502 46.7763 21.405 47.0389C22.1269 47.2932 22.3402 47.7444 22.4796 49.262C22.5617 50.2054 22.5206 52.2071 22.414 52.6911C22.3484 52.9618 22.2171 53.0356 21.9382 52.9618C21.7331 52.9126 21.6101 52.6911 21.6019 52.3793C21.6019 52.2481 21.5362 52.2071 21.2983 52.1907C21.044 52.166 20.9866 52.1907 20.9866 52.3137C20.9866 52.9044 22.3156 53.3966 23.0047 53.0602C23.2918 52.9208 23.5215 52.5352 23.6609 51.9363C23.8004 51.3539 23.8086 49.0733 23.6773 48.6303C23.5543 48.2038 23.6527 48.1381 24.3664 48.1709C24.8094 48.1955 24.9571 48.2366 25.1294 48.4006L25.3344 48.5893L25.3262 50.4023C25.318 51.4031 25.2934 52.5434 25.2606 52.9536L25.2114 53.6919L24.8094 53.6591C24.5387 53.6427 24.4321 53.6591 24.4649 53.7247C24.4977 53.7739 24.6125 53.8149 24.7192 53.8149C25.1047 53.8149 25.1704 53.8888 25.1704 54.3482C25.1704 54.5943 25.2032 54.8158 25.2524 54.8404C25.2934 54.865 25.5067 54.7584 25.72 54.5943C25.9251 54.4384 26.3025 54.2415 26.5404 54.1759C27.008 54.0446 27.0162 54.0118 26.7126 53.8642L26.524 53.7657V51.1734C26.524 49.4507 26.4911 48.5483 26.4337 48.4909C26.3927 48.4417 26.1302 48.3186 25.8595 48.2202C25.4739 48.0807 25.1786 48.0479 24.4157 48.0397L23.4558 48.0315L23.0785 47.6459C22.4468 47.0142 21.085 46.4482 20.7487 46.6697Z" fill="#0430CA"/>
<path d="M33.333 48.5811C33.5873 47.769 34.1861 47.0143 34.7686 46.7435C35.1295 46.5795 35.3838 46.7846 35.4659 47.2932C35.5151 47.5557 35.4823 47.6705 35.3428 47.851C35.0639 48.2038 34.9326 48.1381 34.9326 47.6705C34.9326 47.3998 34.8834 47.2193 34.8014 47.1291C34.6701 47.0061 34.6537 47.0061 34.5061 47.1537C34.2764 47.3752 34.2025 48.0807 34.1451 50.4925C34.0877 52.97 34.0877 52.9782 34.7686 52.6911C35.3756 52.4368 35.1377 52.6993 34.4814 53.011C33.9646 53.2489 33.5544 53.2981 33.2837 53.1505C33.1525 53.0848 33.0048 53.1341 32.447 53.454C31.8809 53.7821 31.7005 53.8478 31.2411 53.8806C30.8145 53.9052 30.6668 53.8888 30.5684 53.7821C30.3551 53.5689 30.3141 52.7403 30.4207 50.5828C30.4699 49.4753 30.4945 48.5319 30.4617 48.4827C30.4371 48.4417 30.3141 48.4006 30.191 48.4006C30.0023 48.4006 30.0433 48.3596 30.4453 48.1381C30.7078 47.9905 31.0852 47.7034 31.2821 47.4819C31.479 47.2686 31.6594 47.0881 31.684 47.0881C31.7087 47.0881 31.7333 47.2686 31.7333 47.4983C31.7333 47.9412 31.7825 47.9823 32.1845 47.8264C32.3485 47.7608 32.3978 47.769 32.3731 47.8428C32.3485 47.9002 32.2009 47.9741 32.0368 48.0151C31.7825 48.0725 31.7333 48.1299 31.7005 48.3432C31.6266 48.8108 31.479 53.0766 31.5282 53.2407C31.643 53.5935 31.8809 53.6099 32.4634 53.3063L33.0048 53.0356L32.9802 52.0102C32.9474 50.7386 33.0868 49.3687 33.333 48.5811Z" fill="#0430CA"/>
<path d="M47.3774 47.006C47.0984 47.2275 47.041 47.5229 47.2051 47.8674C47.3445 48.1709 47.7465 48.3678 48.0254 48.2694C48.3126 48.1627 48.5505 47.8838 48.5505 47.6541C48.5505 46.9732 47.886 46.6041 47.3774 47.006Z" fill="#0430CA"/>
<path d="M27.6725 47.81C27.6233 47.6295 27.6643 47.5393 27.8612 47.3342C28.0499 47.1537 28.1893 47.0881 28.4108 47.0881C29.0015 47.0881 29.3296 47.7854 28.9522 48.2448C28.8748 48.3425 28.8359 48.3918 28.8404 48.4366C28.8449 48.4821 28.8941 48.5231 28.9933 48.6057C29.1081 48.696 29.2066 48.86 29.2148 48.9749C29.2394 49.2292 29.1245 52.002 29.0589 52.7977C29.0097 53.4048 29.0097 53.4212 29.3952 53.6919C29.5511 53.7985 29.5429 53.815 29.1901 53.9708C28.7636 54.1513 28.2878 54.2415 28.1565 54.1595C27.9186 54.0036 27.9022 53.7411 27.9596 51.477L28.0335 49.18L27.8284 49.0159C27.7217 48.9175 27.6315 48.819 27.6315 48.7944C27.6315 48.7616 27.7791 48.6878 27.9678 48.6385C28.2549 48.5483 28.2796 48.5237 28.1401 48.4745C27.9432 48.4006 27.7463 48.1217 27.6725 47.81Z" fill="#0430CA"/>
<path d="M18.9112 49.0405C18.7061 49.262 18.7307 49.6804 18.9522 49.8281C19.346 50.107 19.8382 49.8855 19.8382 49.4343C19.8382 49.2784 19.7726 49.1061 19.6905 49.0323C19.4854 48.8518 19.0753 48.86 18.9112 49.0405Z" fill="#0430CA"/>
<path d="M37.328 50.5336C36.844 50.5336 36.6061 49.8445 36.9753 49.5327C37.0819 49.4507 37.2378 49.3851 37.328 49.3851C37.5331 49.3851 37.8858 49.746 37.8858 49.9593C37.8858 50.1726 37.5331 50.5336 37.328 50.5336Z" fill="#0430CA"/>
<path d="M28.0334 54.5451C27.8694 54.7091 27.7955 54.865 27.7955 55.0455C27.7955 55.3736 28.1811 55.7838 28.4928 55.7838C29.2312 55.7838 29.5019 54.7584 28.8538 54.4302C28.5093 54.2497 28.3042 54.2826 28.0334 54.5451Z" fill="#0430CA"/>
<path d="M63.7161 15.3389C64.2621 16.1449 65.0898 16.5479 66.1991 16.5479C66.6151 16.5479 66.9748 16.4916 67.2781 16.3789C67.5814 16.2662 67.8414 16.1146 68.0581 15.9239C68.2747 15.7332 68.4567 15.5209 68.6041 15.2869C68.7514 15.0529 68.8814 14.8102 68.9941 14.5589L68.0581 14.1299C67.9801 14.3292 67.8891 14.5199 67.7851 14.7019C67.6811 14.8752 67.5554 15.0312 67.4081 15.1699C67.2694 15.2999 67.1004 15.4039 66.9011 15.4819C66.7104 15.5599 66.4764 15.5989 66.1991 15.5989C65.4798 15.5989 64.9424 15.3259 64.5871 14.7799C64.2404 14.2339 64.0671 13.5059 64.0671 12.5959V11.1139C64.0671 10.2039 64.2404 9.4759 64.5871 8.9299C64.9424 8.3839 65.4798 8.1109 66.1991 8.1109C66.4764 8.1109 66.7104 8.1499 66.9011 8.2279C67.1004 8.3059 67.2694 8.41423 67.4081 8.5529C67.5554 8.6829 67.6811 8.8389 67.7851 9.0209C67.8891 9.19423 67.9801 9.38057 68.0581 9.5799L68.9941 9.1509C68.8814 8.90823 68.7514 8.6699 68.6041 8.4359C68.4567 8.19323 68.2747 7.97657 68.0581 7.7859C67.8414 7.59523 67.5814 7.44357 67.2781 7.3309C66.9748 7.21823 66.6151 7.1619 66.1991 7.1619C65.0898 7.1619 64.2621 7.5649 63.7161 8.3709C63.1788 9.1769 62.9101 10.3382 62.9101 11.8549C62.9101 13.3716 63.1788 14.5329 63.7161 15.3389Z" fill="#0430CA"/>
<path fill-rule="evenodd" clip-rule="evenodd" d="M72.785 16.2359C73.1837 16.4439 73.6603 16.5479 74.215 16.5479C74.7697 16.5479 75.2463 16.4439 75.645 16.2359C76.0437 16.0192 76.373 15.7116 76.633 15.3129C76.893 14.9142 77.0837 14.4246 77.205 13.8439C77.3263 13.2632 77.387 12.6002 77.387 11.8549C77.387 11.1182 77.3263 10.4596 77.205 9.8789C77.0837 9.28957 76.893 8.79557 76.633 8.3969C76.373 7.99823 76.0437 7.6949 75.645 7.4869C75.2463 7.27023 74.7697 7.1619 74.215 7.1619C73.6603 7.1619 73.1837 7.27023 72.785 7.4869C72.3863 7.6949 72.057 7.99823 71.797 8.3969C71.537 8.79557 71.3463 9.28957 71.225 9.8789C71.1037 10.4596 71.043 11.1182 71.043 11.8549C71.043 12.6002 71.1037 13.2632 71.225 13.8439C71.3463 14.4246 71.537 14.9142 71.797 15.3129C72.057 15.7116 72.3863 16.0192 72.785 16.2359ZM75.138 15.3909C74.8867 15.5296 74.579 15.5989 74.215 15.5989C73.851 15.5989 73.5433 15.5296 73.292 15.3909C73.0407 15.2436 72.8327 15.0399 72.668 14.7799C72.5033 14.5199 72.382 14.2079 72.304 13.8439C72.2347 13.4712 72.2 13.0552 72.2 12.5959V11.1139C72.2 10.6632 72.2347 10.2516 72.304 9.8789C72.382 9.50623 72.5033 9.1899 72.668 8.9299C72.8327 8.6699 73.0407 8.47057 73.292 8.3319C73.5433 8.18457 73.851 8.1109 74.215 8.1109C74.579 8.1109 74.8867 8.18457 75.138 8.3319C75.3893 8.47057 75.5973 8.6699 75.762 8.9299C75.9267 9.1899 76.0437 9.50623 76.113 9.8789C76.191 10.2516 76.23 10.6632 76.23 11.1139V12.5959C76.23 13.0552 76.191 13.4712 76.113 13.8439C76.0437 14.2079 75.9267 14.5199 75.762 14.7799C75.5973 15.0399 75.3893 15.2436 75.138 15.3909Z" fill="#0430CA"/>
<path d="M84.5449 8.9689V16.3919H85.5459V7.3179H84.1939L82.5949 11.3219H82.5169L80.9179 7.3179H79.5139V16.3919H80.5149V8.9689H80.6189L82.5299 13.6359L84.4409 8.9689H84.5449Z" fill="#0430CA"/>
<path fill-rule="evenodd" clip-rule="evenodd" d="M88.1149 7.3179V16.3919H89.2068V12.5439H91.4168C92.2575 12.5439 92.8988 12.3142 93.3409 11.8549C93.7829 11.3956 94.0039 10.7542 94.0039 9.9309C94.0039 9.10757 93.7829 8.46623 93.3409 8.0069C92.8988 7.54757 92.2575 7.3179 91.4168 7.3179H88.1149ZM91.3909 11.5949H89.2068V8.2669H91.3909C91.8502 8.2669 92.2055 8.3839 92.4568 8.6179C92.7169 8.84323 92.8468 9.16823 92.8468 9.5929V10.2689C92.8468 10.6936 92.7169 11.0229 92.4568 11.2569C92.2055 11.4822 91.8502 11.5949 91.3909 11.5949Z" fill="#0430CA"/>
<path d="M97.3918 12.7649V7.3179H96.2998V12.5049C96.2998 13.1809 96.3301 13.7702 96.3908 14.2729C96.4601 14.7756 96.5944 15.1959 96.7938 15.5339C97.0018 15.8719 97.2921 16.1276 97.6648 16.3009C98.0461 16.4656 98.5444 16.5479 99.1598 16.5479C99.7751 16.5479 100.269 16.4656 100.642 16.3009C101.023 16.1276 101.313 15.8719 101.513 15.5339C101.721 15.1959 101.855 14.7756 101.916 14.2729C101.985 13.7702 102.02 13.1809 102.02 12.5049V7.3179H100.928V12.7649C100.928 13.2069 100.915 13.6012 100.889 13.9479C100.863 14.2946 100.793 14.5936 100.681 14.8449C100.568 15.0876 100.39 15.2739 100.148 15.4039C99.9138 15.5339 99.5844 15.5989 99.1598 15.5989C98.7351 15.5989 98.4014 15.5339 98.1588 15.4039C97.9248 15.2739 97.7514 15.0876 97.6388 14.8449C97.5261 14.5936 97.4568 14.2946 97.4308 13.9479C97.4048 13.6012 97.3918 13.2069 97.3918 12.7649Z" fill="#0430CA"/>
<path d="M108.021 16.3919V8.2669H111.05V7.3179H103.9V8.2669H106.929V16.3919H108.021Z" fill="#0430CA"/>
<path d="M113.06 7.3179V16.3919H118.65V15.4429H114.152V12.2709H118.494V11.3219H114.152V8.2669H118.65V7.3179H113.06Z" fill="#0430CA"/>
<path fill-rule="evenodd" clip-rule="evenodd" d="M121.375 16.3919H122.467V12.5179H123.91L126.12 16.3919H127.342L125.028 12.4659C125.756 12.3966 126.31 12.1409 126.692 11.6989C127.073 11.2569 127.264 10.6676 127.264 9.9309C127.264 9.10757 127.043 8.46623 126.601 8.0069C126.159 7.54757 125.517 7.3179 124.677 7.3179H121.375V16.3919ZM125.717 11.2569C125.465 11.4822 125.11 11.5949 124.651 11.5949H122.467V8.2669H124.651C125.11 8.2669 125.465 8.3839 125.717 8.6179C125.977 8.84323 126.107 9.16823 126.107 9.5929V10.2689C126.107 10.6936 125.977 11.0229 125.717 11.2569Z" fill="#0430CA"/>
<path d="M138.706 16.1059C139.226 16.4006 139.894 16.5479 140.708 16.5479C141.722 16.5479 142.502 16.3096 143.048 15.8329C143.603 15.3562 143.88 14.6976 143.88 13.8569C143.88 13.5622 143.841 13.2806 143.763 13.0119C143.685 12.7432 143.551 12.5006 143.36 12.2839C143.178 12.0672 142.936 11.8809 142.632 11.7249C142.329 11.5689 141.956 11.4519 141.514 11.3739L140.539 11.2049C139.898 11.0922 139.452 10.9102 139.2 10.6589C138.958 10.3989 138.836 10.0652 138.836 9.6579C138.836 9.1379 139.001 8.7479 139.33 8.4879C139.66 8.2279 140.132 8.0979 140.747 8.0979C141.311 8.0979 141.77 8.2019 142.125 8.4099C142.481 8.6179 142.784 8.88657 143.035 9.2159L143.802 8.5529C143.499 8.1109 143.096 7.76857 142.593 7.5259C142.099 7.28323 141.488 7.1619 140.76 7.1619C139.833 7.1619 139.096 7.37423 138.55 7.7989C138.004 8.22357 137.731 8.8519 137.731 9.6839C137.731 9.9699 137.77 10.2472 137.848 10.5159C137.926 10.7759 138.056 11.0186 138.238 11.2439C138.42 11.4606 138.659 11.6469 138.953 11.8029C139.257 11.9589 139.629 12.0759 140.071 12.1539L141.085 12.3229C141.709 12.4269 142.147 12.6046 142.398 12.8559C142.65 13.0986 142.775 13.4409 142.775 13.8829C142.775 14.4289 142.602 14.8536 142.255 15.1569C141.909 15.4602 141.406 15.6119 140.747 15.6119C140.201 15.6119 139.729 15.5036 139.33 15.2869C138.94 15.0702 138.568 14.7409 138.212 14.2989L137.419 14.9489C137.757 15.4169 138.186 15.8026 138.706 16.1059Z" fill="#0430CA"/>
<path d="M146.865 15.3389C147.411 16.1449 148.239 16.5479 149.348 16.5479C149.764 16.5479 150.124 16.4916 150.427 16.3789C150.731 16.2662 150.991 16.1146 151.207 15.9239C151.424 15.7332 151.606 15.5209 151.753 15.2869C151.901 15.0529 152.031 14.8102 152.143 14.5589L151.207 14.1299C151.129 14.3292 151.038 14.5199 150.934 14.7019C150.83 14.8752 150.705 15.0312 150.557 15.1699C150.419 15.2999 150.25 15.4039 150.05 15.4819C149.86 15.5599 149.626 15.5989 149.348 15.5989C148.629 15.5989 148.092 15.3259 147.736 14.7799C147.39 14.2339 147.216 13.5059 147.216 12.5959V11.1139C147.216 10.2039 147.39 9.4759 147.736 8.9299C148.092 8.3839 148.629 8.1109 149.348 8.1109C149.626 8.1109 149.86 8.1499 150.05 8.2279C150.25 8.3059 150.419 8.41423 150.557 8.5529C150.705 8.6829 150.83 8.8389 150.934 9.0209C151.038 9.19423 151.129 9.38057 151.207 9.5799L152.143 9.1509C152.031 8.90823 151.901 8.6699 151.753 8.4359C151.606 8.19323 151.424 7.97657 151.207 7.7859C150.991 7.59523 150.731 7.44357 150.427 7.3309C150.124 7.21823 149.764 7.1619 149.348 7.1619C148.239 7.1619 147.411 7.5649 146.865 8.3709C146.328 9.1769 146.059 10.3382 146.059 11.8549C146.059 13.3716 146.328 14.5329 146.865 15.3389Z" fill="#0430CA"/>
<path d="M154.556 15.5209V16.3919H160.172V15.5209H157.91V8.1889H160.172V7.3179H154.556V8.1889H156.818V15.5209H154.556Z" fill="#0430CA"/>
<path d="M164.925 16.2879C165.072 16.4352 165.324 16.5089 165.679 16.5089C166.034 16.5089 166.281 16.4352 166.42 16.2879C166.567 16.1406 166.641 15.9542 166.641 15.7289V15.4949C166.641 15.2696 166.567 15.0832 166.42 14.9359C166.281 14.7886 166.034 14.7149 165.679 14.7149C165.324 14.7149 165.072 14.7886 164.925 14.9359C164.786 15.0832 164.717 15.2696 164.717 15.4949V15.7289C164.717 15.9542 164.786 16.1406 164.925 16.2879Z" fill="#0430CA"/>
<path fill-rule="evenodd" clip-rule="evenodd" d="M180.164 16.3529C180.476 16.4829 180.831 16.5479 181.23 16.5479C181.819 16.5479 182.3 16.4136 182.673 16.1449C183.046 15.8676 183.293 15.5036 183.414 15.0529H183.479L184.61 16.3919H185.845L184.259 14.5199C184.337 14.3206 184.398 14.1342 184.441 13.9609C184.484 13.7789 184.523 13.6012 184.558 13.4279C184.593 13.2546 184.623 13.0769 184.649 12.8949C184.675 12.7129 184.701 12.5179 184.727 12.3099H185.702V11.4389H183.869C183.852 11.8549 183.834 12.2796 183.817 12.7129C183.8 13.1462 183.761 13.5319 183.7 13.8699H183.635L181.516 11.2569C181.351 11.0489 181.208 10.8626 181.087 10.6979C180.974 10.5332 180.879 10.3816 180.801 10.2429C180.732 10.0956 180.68 9.9569 180.645 9.8269C180.61 9.6969 180.593 9.56257 180.593 9.4239V9.3199C180.593 8.94723 180.706 8.6439 180.931 8.4099C181.165 8.16723 181.477 8.0459 181.867 8.0459C182.205 8.0459 182.487 8.1369 182.712 8.3189C182.937 8.49223 183.106 8.71323 183.219 8.9819L184.077 8.5399C184.016 8.37523 183.921 8.21057 183.791 8.0459C183.67 7.88123 183.518 7.7339 183.336 7.6039C183.154 7.4739 182.942 7.3699 182.699 7.2919C182.465 7.20523 182.205 7.1619 181.919 7.1619C181.598 7.1619 181.295 7.2139 181.009 7.3179C180.723 7.4219 180.472 7.57357 180.255 7.7729C180.047 7.96357 179.878 8.19323 179.748 8.4619C179.627 8.73057 179.566 9.02957 179.566 9.3589C179.566 9.7489 179.644 10.1086 179.8 10.4379C179.965 10.7672 180.168 11.0879 180.411 11.3999C180.082 11.5646 179.809 11.7552 179.592 11.9719C179.384 12.1799 179.215 12.4009 179.085 12.6349C178.955 12.8602 178.864 13.0942 178.812 13.3369C178.76 13.5796 178.734 13.8136 178.734 14.0389C178.734 14.3856 178.79 14.7106 178.903 15.0139C179.016 15.3172 179.176 15.5859 179.384 15.8199C179.601 16.0452 179.861 16.2229 180.164 16.3529ZM182.491 15.3909C182.205 15.5469 181.876 15.6249 181.503 15.6249C181 15.6249 180.593 15.4862 180.281 15.2089C179.969 14.9316 179.813 14.5589 179.813 14.0909V13.8959C179.813 13.5232 179.895 13.1809 180.06 12.8689C180.225 12.5482 180.506 12.2622 180.905 12.0109L183.167 14.7409C183.002 15.0182 182.777 15.2349 182.491 15.3909Z" fill="#0430CA"/>
<path d="M63.1701 23.3179V32.3919H68.7601V31.4429H64.2621V28.2709H68.6041V27.3219H64.2621V24.2669H68.7601V23.3179H63.1701Z" fill="#0430CA"/>
<path d="M72.343 24.7089H72.434L75.528 32.3919H77.075V23.3179H76.087V30.9229H75.996L72.902 23.3179H71.355V32.3919H72.343V24.7089Z" fill="#0430CA"/>
<path d="M84.3369 31.1829H84.4019V32.3919H85.4159V27.9069H82.4909V28.7779H84.4019V29.7139C84.4019 30.2772 84.2373 30.7366 83.9079 31.0919C83.5786 31.4472 83.1193 31.6249 82.5299 31.6249C82.1573 31.6249 81.8409 31.5512 81.5809 31.4039C81.3296 31.2479 81.1216 31.0312 80.9569 30.7539C80.8009 30.4766 80.6883 30.1516 80.6189 29.7789C80.5496 29.3976 80.5149 28.9772 80.5149 28.5179V27.1139C80.5149 26.2039 80.6839 25.4759 81.0219 24.9299C81.3686 24.3839 81.9059 24.1109 82.6339 24.1109C82.9026 24.1109 83.1366 24.1499 83.3359 24.2279C83.5353 24.3059 83.7043 24.4142 83.8429 24.5529C83.9903 24.6829 84.1116 24.8389 84.2069 25.0209C84.3109 25.1942 84.4019 25.3806 84.4799 25.5799L85.4159 25.1509C85.3206 24.9082 85.1993 24.6699 85.0519 24.4359C84.9046 24.1932 84.7183 23.9766 84.4929 23.7859C84.2763 23.5952 84.0119 23.4436 83.6999 23.3309C83.3879 23.2182 83.0196 23.1619 82.5949 23.1619C81.4943 23.1619 80.6796 23.5649 80.1509 24.3709C79.6223 25.1769 79.3579 26.3599 79.3579 27.9199C79.3579 29.4106 79.5963 30.5546 80.0729 31.3519C80.5583 32.1492 81.2949 32.5479 82.2829 32.5479C82.5949 32.5479 82.8636 32.5089 83.0889 32.4309C83.3143 32.3529 83.5049 32.2532 83.6609 32.1319C83.8256 32.0019 83.9599 31.8546 84.0639 31.6899C84.1679 31.5252 84.2589 31.3562 84.3369 31.1829Z" fill="#0430CA"/>
<path d="M88.0368 31.5209V32.3919H93.6528V31.5209H91.3909V24.1889H93.6528V23.3179H88.0368V24.1889H90.2989V31.5209H88.0368Z" fill="#0430CA"/>
<path d="M97.2878 24.7089H97.3788L100.473 32.3919H102.02V23.3179H101.032V30.9229H100.941L97.8468 23.3179H96.2998V32.3919H97.2878V24.7089Z" fill="#0430CA"/>
<path d="M104.745 23.3179V32.3919H110.335V31.4429H105.837V28.2709H110.179V27.3219H105.837V24.2669H110.335V23.3179H104.745Z" fill="#0430CA"/>
<path d="M113.06 23.3179V32.3919H118.65V31.4429H114.152V28.2709H118.494V27.3219H114.152V24.2669H118.65V23.3179H113.06Z" fill="#0430CA"/>
<path fill-rule="evenodd" clip-rule="evenodd" d="M121.375 32.3919H122.467V28.5179H123.91L126.12 32.3919H127.342L125.028 28.4659C125.756 28.3966 126.31 28.1409 126.692 27.6989C127.073 27.2569 127.264 26.6676 127.264 25.9309C127.264 25.1076 127.043 24.4662 126.601 24.0069C126.159 23.5476 125.517 23.3179 124.677 23.3179H121.375V32.3919ZM125.717 27.2569C125.465 27.4822 125.11 27.5949 124.651 27.5949H122.467V24.2669H124.651C125.11 24.2669 125.465 24.3839 125.717 24.6179C125.977 24.8432 126.107 25.1682 126.107 25.5929V26.2689C126.107 26.6936 125.977 27.0229 125.717 27.2569Z" fill="#0430CA"/>
<path d="M129.611 31.5209V32.3919H135.227V31.5209H132.965V24.1889H135.227V23.3179H129.611V24.1889H131.873V31.5209H129.611Z" fill="#0430CA"/>
<path d="M138.862 24.7089H138.953L142.047 32.3919H143.594V23.3179H142.606V30.9229H142.515L139.421 23.3179H137.874V32.3919H138.862V24.7089Z" fill="#0430CA"/>
<path d="M150.856 31.1829H150.921V32.3919H151.935V27.9069H149.01V28.7779H150.921V29.7139C150.921 30.2772 150.757 30.7366 150.427 31.0919C150.098 31.4472 149.639 31.6249 149.049 31.6249C148.677 31.6249 148.36 31.5512 148.1 31.4039C147.849 31.2479 147.641 31.0312 147.476 30.7539C147.32 30.4766 147.208 30.1516 147.138 29.7789C147.069 29.3976 147.034 28.9772 147.034 28.5179V27.1139C147.034 26.2039 147.203 25.4759 147.541 24.9299C147.888 24.3839 148.425 24.1109 149.153 24.1109C149.422 24.1109 149.656 24.1499 149.855 24.2279C150.055 24.3059 150.224 24.4142 150.362 24.5529C150.51 24.6829 150.631 24.8389 150.726 25.0209C150.83 25.1942 150.921 25.3806 150.999 25.5799L151.935 25.1509C151.84 24.9082 151.719 24.6699 151.571 24.4359C151.424 24.1932 151.238 23.9766 151.012 23.7859C150.796 23.5952 150.531 23.4436 150.219 23.3309C149.907 23.2182 149.539 23.1619 149.114 23.1619C148.014 23.1619 147.199 23.5649 146.67 24.3709C146.142 25.1769 145.877 26.3599 145.877 27.9199C145.877 29.4106 146.116 30.5546 146.592 31.3519C147.078 32.1492 147.814 32.5479 148.802 32.5479C149.114 32.5479 149.383 32.5089 149.608 32.4309C149.834 32.3529 150.024 32.2532 150.18 32.1319C150.345 32.0019 150.479 31.8546 150.583 31.6899C150.687 31.5252 150.778 31.3562 150.856 31.1829Z" fill="#0430CA"/>
<path fill-rule="evenodd" clip-rule="evenodd" d="M167.265 29.8049L168.032 32.3919H169.189L166.407 23.3179H164.964L162.182 32.3919H163.313L164.08 29.8049H167.265ZM165.614 24.4749H165.731L167.005 28.8559H164.34L165.614 24.4749Z" fill="#0430CA"/>
<path d="M171.966 32.1059C172.486 32.4006 173.153 32.5479 173.968 32.5479C174.982 32.5479 175.762 32.3096 176.308 31.8329C176.863 31.3562 177.14 30.6976 177.14 29.8569C177.14 29.5622 177.101 29.2806 177.023 29.0119C176.945 28.7432 176.811 28.5006 176.62 28.2839C176.438 28.0672 176.195 27.8809 175.892 27.7249C175.589 27.5689 175.216 27.4519 174.774 27.3739L173.799 27.2049C173.158 27.0922 172.711 26.9102 172.46 26.6589C172.217 26.3989 172.096 26.0652 172.096 25.6579C172.096 25.1379 172.261 24.7479 172.59 24.4879C172.919 24.2279 173.392 24.0979 174.007 24.0979C174.57 24.0979 175.03 24.2019 175.385 24.4099C175.74 24.6179 176.044 24.8866 176.295 25.2159L177.062 24.5529C176.759 24.1109 176.356 23.7686 175.853 23.5259C175.359 23.2832 174.748 23.1619 174.02 23.1619C173.093 23.1619 172.356 23.3742 171.81 23.7989C171.264 24.2236 170.991 24.8519 170.991 25.6839C170.991 25.9699 171.03 26.2472 171.108 26.5159C171.186 26.7759 171.316 27.0186 171.498 27.2439C171.68 27.4606 171.918 27.6469 172.213 27.8029C172.516 27.9589 172.889 28.0759 173.331 28.1539L174.345 28.3229C174.969 28.4269 175.407 28.6046 175.658 28.8559C175.909 29.0986 176.035 29.4409 176.035 29.8829C176.035 30.4289 175.862 30.8536 175.515 31.1569C175.168 31.4602 174.666 31.6119 174.007 31.6119C173.461 31.6119 172.989 31.5036 172.59 31.2869C172.2 31.0702 171.827 30.7409 171.472 30.2989L170.679 30.9489C171.017 31.4169 171.446 31.8026 171.966 32.1059Z" fill="#0430CA"/>
<path d="M180.281 32.1059C180.801 32.4006 181.468 32.5479 182.283 32.5479C183.297 32.5479 184.077 32.3096 184.623 31.8329C185.178 31.3562 185.455 30.6976 185.455 29.8569C185.455 29.5622 185.416 29.2806 185.338 29.0119C185.26 28.7432 185.126 28.5006 184.935 28.2839C184.753 28.0672 184.51 27.8809 184.207 27.7249C183.904 27.5689 183.531 27.4519 183.089 27.3739L182.114 27.2049C181.473 27.0922 181.026 26.9102 180.775 26.6589C180.532 26.3989 180.411 26.0652 180.411 25.6579C180.411 25.1379 180.576 24.7479 180.905 24.4879C181.234 24.2279 181.707 24.0979 182.322 24.0979C182.885 24.0979 183.345 24.2019 183.7 24.4099C184.055 24.6179 184.359 24.8866 184.61 25.2159L185.377 24.5529C185.074 24.1109 184.671 23.7686 184.168 23.5259C183.674 23.2832 183.063 23.1619 182.335 23.1619C181.408 23.1619 180.671 23.3742 180.125 23.7989C179.579 24.2236 179.306 24.8519 179.306 25.6839C179.306 25.9699 179.345 26.2472 179.423 26.5159C179.501 26.7759 179.631 27.0186 179.813 27.2439C179.995 27.4606 180.233 27.6469 180.528 27.8029C180.831 27.9589 181.204 28.0759 181.646 28.1539L182.66 28.3229C183.284 28.4269 183.722 28.6046 183.973 28.8559C184.224 29.0986 184.35 29.4409 184.35 29.8829C184.35 30.4289 184.177 30.8536 183.83 31.1569C183.483 31.4602 182.981 31.6119 182.322 31.6119C181.776 31.6119 181.304 31.5036 180.905 31.2869C180.515 31.0702 180.142 30.7409 179.787 30.2989L178.994 30.9489C179.332 31.4169 179.761 31.8026 180.281 32.1059Z" fill="#0430CA"/>
<path fill-rule="evenodd" clip-rule="evenodd" d="M189.194 32.2359C189.593 32.4439 190.069 32.5479 190.624 32.5479C191.179 32.5479 191.655 32.4439 192.054 32.2359C192.453 32.0192 192.782 31.7116 193.042 31.3129C193.302 30.9142 193.493 30.4246 193.614 29.8439C193.735 29.2632 193.796 28.6002 193.796 27.8549C193.796 27.1182 193.735 26.4596 193.614 25.8789C193.493 25.2896 193.302 24.7956 193.042 24.3969C192.782 23.9982 192.453 23.6949 192.054 23.4869C191.655 23.2702 191.179 23.1619 190.624 23.1619C190.069 23.1619 189.593 23.2702 189.194 23.4869C188.795 23.6949 188.466 23.9982 188.206 24.3969C187.946 24.7956 187.755 25.2896 187.634 25.8789C187.513 26.4596 187.452 27.1182 187.452 27.8549C187.452 28.6002 187.513 29.2632 187.634 29.8439C187.755 30.4246 187.946 30.9142 188.206 31.3129C188.466 31.7116 188.795 32.0192 189.194 32.2359ZM191.547 31.3909C191.296 31.5296 190.988 31.5989 190.624 31.5989C190.26 31.5989 189.952 31.5296 189.701 31.3909C189.45 31.2436 189.242 31.0399 189.077 30.7799C188.912 30.5199 188.791 30.2079 188.713 29.8439C188.644 29.4712 188.609 29.0552 188.609 28.5959V27.1139C188.609 26.6632 188.644 26.2516 188.713 25.8789C188.791 25.5062 188.912 25.1899 189.077 24.9299C189.242 24.6699 189.45 24.4706 189.701 24.3319C189.952 24.1846 190.26 24.1109 190.624 24.1109C190.988 24.1109 191.296 24.1846 191.547 24.3319C191.798 24.4706 192.006 24.6699 192.171 24.9299C192.336 25.1899 192.453 25.5062 192.522 25.8789C192.6 26.2516 192.639 26.6632 192.639 27.1139V28.5959C192.639 29.0552 192.6 29.4712 192.522 29.8439C192.453 30.2079 192.336 30.5199 192.171 30.7799C192.006 31.0399 191.798 31.2436 191.547 31.3909Z" fill="#0430CA"/>
<path d="M196.755 31.3389C197.301 32.1449 198.129 32.5479 199.238 32.5479C199.654 32.5479 200.014 32.4916 200.317 32.3789C200.62 32.2662 200.88 32.1146 201.097 31.9239C201.314 31.7332 201.496 31.5209 201.643 31.2869C201.79 31.0529 201.92 30.8102 202.033 30.5589L201.097 30.1299C201.019 30.3292 200.928 30.5199 200.824 30.7019C200.72 30.8752 200.594 31.0312 200.447 31.1699C200.308 31.2999 200.139 31.4039 199.94 31.4819C199.749 31.5599 199.515 31.5989 199.238 31.5989C198.519 31.5989 197.981 31.3259 197.626 30.7799C197.279 30.2339 197.106 29.5059 197.106 28.5959V27.1139C197.106 26.2039 197.279 25.4759 197.626 24.9299C197.981 24.3839 198.519 24.1109 199.238 24.1109C199.515 24.1109 199.749 24.1499 199.94 24.2279C200.139 24.3059 200.308 24.4142 200.447 24.5529C200.594 24.6829 200.72 24.8389 200.824 25.0209C200.928 25.1942 201.019 25.3806 201.097 25.5799L202.033 25.1509C201.92 24.9082 201.79 24.6699 201.643 24.4359C201.496 24.1932 201.314 23.9766 201.097 23.7859C200.88 23.5952 200.62 23.4436 200.317 23.3309C200.014 23.2182 199.654 23.1619 199.238 23.1619C198.129 23.1619 197.301 23.5649 196.755 24.3709C196.218 25.1769 195.949 26.3382 195.949 27.8549C195.949 29.3716 196.218 30.5329 196.755 31.3389Z" fill="#0430CA"/>
<path d="M206.5 32.2879C206.647 32.4352 206.898 32.5089 207.254 32.5089C207.609 32.5089 207.856 32.4352 207.995 32.2879C208.142 32.1406 208.216 31.9542 208.216 31.7289V31.4949C208.216 31.2696 208.142 31.0832 207.995 30.9359C207.856 30.7886 207.609 30.7149 207.254 30.7149C206.898 30.7149 206.647 30.7886 206.5 30.9359C206.361 31.0832 206.292 31.2696 206.292 31.4949V31.7289C206.292 31.9542 206.361 32.1406 206.5 32.2879Z" fill="#0430CA"/>
<path d="M64.0281 40.7089H64.1191L67.2131 48.3919H68.7601V39.3179H67.7721V46.9229H67.6811L64.5871 39.3179H63.0401V48.3919H64.0281V40.7089Z" fill="#0430CA"/>
<path d="M71.407 47.5209V48.3919H77.023V47.5209H74.761V40.1889H77.023V39.3179H71.407V40.1889H73.669V47.5209H71.407Z" fill="#0430CA"/>
<path d="M83.0759 48.3919V40.2669H86.1049V39.3179H78.9549V40.2669H81.9839V48.3919H83.0759Z" fill="#0430CA"/>
<path d="M96.9758 47.3389C97.5218 48.1449 98.3494 48.5479 99.4588 48.5479C99.8748 48.5479 100.234 48.4916 100.538 48.3789C100.841 48.2662 101.101 48.1146 101.318 47.9239C101.534 47.7332 101.716 47.5209 101.864 47.2869C102.011 47.0529 102.141 46.8102 102.254 46.5589L101.318 46.1299C101.24 46.3292 101.149 46.5199 101.045 46.7019C100.941 46.8752 100.815 47.0312 100.668 47.1699C100.529 47.2999 100.36 47.4039 100.161 47.4819C99.9701 47.5599 99.7361 47.5989 99.4588 47.5989C98.7394 47.5989 98.2021 47.3259 97.8468 46.7799C97.5001 46.2339 97.3268 45.5059 97.3268 44.5959V43.1139C97.3268 42.2039 97.5001 41.4759 97.8468 40.9299C98.2021 40.3839 98.7394 40.1109 99.4588 40.1109C99.7361 40.1109 99.9701 40.1499 100.161 40.2279C100.36 40.3059 100.529 40.4142 100.668 40.5529C100.815 40.6829 100.941 40.8389 101.045 41.0209C101.149 41.1942 101.24 41.3806 101.318 41.5799L102.254 41.1509C102.141 40.9082 102.011 40.6699 101.864 40.4359C101.716 40.1932 101.534 39.9766 101.318 39.7859C101.101 39.5952 100.841 39.4436 100.538 39.3309C100.234 39.2182 99.8748 39.1619 99.4588 39.1619C98.3494 39.1619 97.5218 39.5649 96.9758 40.3709C96.4384 41.1769 96.1698 42.3382 96.1698 43.8549C96.1698 45.3716 96.4384 46.5329 96.9758 47.3389Z" fill="#0430CA"/>
<path fill-rule="evenodd" clip-rule="evenodd" d="M109.061 45.8049L109.828 48.3919H110.985L108.203 39.3179H106.76L103.978 48.3919H105.109L105.876 45.8049H109.061ZM107.41 40.4749H107.527L108.801 44.8559H106.136L107.41 40.4749Z" fill="#0430CA"/>
<path d="M113.45 39.3179V48.3919H118.845V47.4429H114.542V39.3179H113.45Z" fill="#0430CA"/>
<path d="M121.297 47.5209V48.3919H126.913V47.5209H124.651V40.1889H126.913V39.3179H121.297V40.1889H123.559V47.5209H121.297Z" fill="#0430CA"/>
<path d="M130.235 47.3389C130.781 48.1449 131.609 48.5479 132.718 48.5479C133.134 48.5479 133.494 48.4916 133.797 48.3789C134.101 48.2662 134.361 48.1146 134.577 47.9239C134.794 47.7332 134.976 47.5209 135.123 47.2869C135.271 47.0529 135.401 46.8102 135.513 46.5589L134.577 46.1299C134.499 46.3292 134.408 46.5199 134.304 46.7019C134.2 46.8752 134.075 47.0312 133.927 47.1699C133.789 47.2999 133.62 47.4039 133.42 47.4819C133.23 47.5599 132.996 47.5989 132.718 47.5989C131.999 47.5989 131.462 47.3259 131.106 46.7799C130.76 46.2339 130.586 45.5059 130.586 44.5959V43.1139C130.586 42.2039 130.76 41.4759 131.106 40.9299C131.462 40.3839 131.999 40.1109 132.718 40.1109C132.996 40.1109 133.23 40.1499 133.42 40.2279C133.62 40.3059 133.789 40.4142 133.927 40.5529C134.075 40.6829 134.2 40.8389 134.304 41.0209C134.408 41.1942 134.499 41.3806 134.577 41.5799L135.513 41.1509C135.401 40.9082 135.271 40.6699 135.123 40.4359C134.976 40.1932 134.794 39.9766 134.577 39.7859C134.361 39.5952 134.101 39.4436 133.797 39.3309C133.494 39.2182 133.134 39.1619 132.718 39.1619C131.609 39.1619 130.781 39.5649 130.235 40.3709C129.698 41.1769 129.429 42.3382 129.429 43.8549C129.429 45.3716 129.698 46.5329 130.235 47.3389Z" fill="#0430CA"/>
<path d="M138.966 44.7649V39.3179H137.874V44.5049C137.874 45.1809 137.905 45.7702 137.965 46.2729C138.035 46.7756 138.169 47.1959 138.368 47.5339C138.576 47.8719 138.867 48.1276 139.239 48.3009C139.621 48.4656 140.119 48.5479 140.734 48.5479C141.35 48.5479 141.844 48.4656 142.216 48.3009C142.598 48.1276 142.888 47.8719 143.087 47.5339C143.295 47.1959 143.43 46.7756 143.49 46.2729C143.56 45.7702 143.594 45.1809 143.594 44.5049V39.3179H142.502V44.7649C142.502 45.2069 142.489 45.6012 142.463 45.9479C142.437 46.2946 142.368 46.5936 142.255 46.8449C142.143 47.0876 141.965 47.2739 141.722 47.4039C141.488 47.5339 141.159 47.5989 140.734 47.5989C140.31 47.5989 139.976 47.5339 139.733 47.4039C139.499 47.2739 139.326 47.0876 139.213 46.8449C139.101 46.5936 139.031 46.2946 139.005 45.9479C138.979 45.6012 138.966 45.2069 138.966 44.7649Z" fill="#0430CA"/>
<path d="M149.595 48.3919V40.2669H152.624V39.3179H145.474V40.2669H148.503V48.3919H149.595Z" fill="#0430CA"/>
</svg>
