<svg width="18" height="18" viewBox="0 0 18 18" fill="none" xmlns="http://www.w3.org/2000/svg">
<mask id="mask0_78_951" style="mask-type:alpha" maskUnits="userSpaceOnUse" x="0" y="0" width="18" height="18">
<rect width="18" height="18" fill="#D9D9D9"/>
</mask>
<g mask="url(#mask0_78_951)">
<path d="M8.25 13.5C9.7 13.5 10.9375 12.9906 11.9625 11.9719C12.9875 10.9531 13.5 9.7125 13.5 8.25C13.5 6.8 12.9875 5.5625 11.9625 4.5375C10.9375 3.5125 9.7 3 8.25 3C6.7875 3 5.54688 3.5125 4.52812 4.5375C3.50937 5.5625 3 6.8 3 8.25C3 9.7125 3.50937 10.9531 4.52812 11.9719C5.54688 12.9906 6.7875 13.5 8.25 13.5ZM8.25 15C7.3125 15 6.43438 14.8219 5.61563 14.4656C4.79688 14.1094 4.08438 13.6281 3.47813 13.0219C2.87188 12.4156 2.39062 11.7031 2.03438 10.8844C1.67813 10.0656 1.5 9.1875 1.5 8.25C1.5 7.325 1.67813 6.45312 2.03438 5.63438C2.39062 4.81563 2.87188 4.1 3.47813 3.4875C4.08438 2.875 4.79688 2.39062 5.61563 2.03438C6.43438 1.67813 7.3125 1.5 8.25 1.5C9.175 1.5 10.0469 1.67813 10.8656 2.03438C11.6844 2.39062 12.4 2.875 13.0125 3.4875C13.625 4.1 14.1094 4.81563 14.4656 5.63438C14.8219 6.45312 15 7.325 15 8.25C15 9.05 14.8688 9.80625 14.6063 10.5188C14.3438 11.2313 13.9812 11.8813 13.5187 12.4688L16.5 15.45L15.4313 16.5L12.45 13.5375C11.8625 14 11.2125 14.3594 10.5 14.6156C9.7875 14.8719 9.0375 15 8.25 15Z" fill="#0430CA"/>
</g>
</svg>
